<svg xmlns="http://www.w3.org/2000/svg" viewBox="0 0 118.92 118.92"><path fill="none" stroke="#000" stroke-miterlimit="10" stroke-width=".12" d="M.06 115.98l2.88 2.88H116.1l2.76-2.88V2.94L116.1.06H2.94L.06 2.94v113.04z"/><path d="M88.26 111.66c0 2.52 2.16 4.68 4.68 4.68s4.56-2.16 4.56-4.68-2.04-4.56-4.56-4.56-4.68 2.04-4.68 4.56zM1.86 111.66c0 2.52 2.16 4.68 4.68 4.68s4.56-2.16 4.56-4.68-2.04-4.56-4.56-4.56-4.68 2.04-4.68 4.56zM88.26 32.46c0 2.52 2.16 4.68 4.68 4.68s4.56-2.16 4.56-4.68-2.04-4.56-4.56-4.56-4.68 2.04-4.68 4.56zM1.86 7.26c0 2.52 2.16 4.68 4.68 4.68s4.56-2.16 4.56-4.68S9.06 2.7 6.54 2.7 1.86 4.74 1.86 7.26z"/></svg>