<svg xmlns="http://www.w3.org/2000/svg" viewBox="0 0 92.94 118.92"><path d="M71.32 32.84c-1.83 0-3.33 1.5-3.33 3.33s1.5 3.33 3.33 3.33 3.33-1.5 3.33-3.33-1.5-3.33-3.33-3.33zM71.32 42.51c-1.19 0-2.16.97-2.16 2.16s.97 2.16 2.16 2.16 2.16-.97 2.16-2.16-.97-2.16-2.16-2.16zM63.96 38.26c-1.19 0-2.16.97-2.16 2.16s.97 2.16 2.16 2.16 2.16-.97 2.16-2.16-.97-2.16-2.16-2.16z"/><circle cx="63.96" cy="31.91" r="2.16"/><circle cx="71.32" cy="27.66" r="2.16"/><circle cx="78.69" cy="31.91" r="2.16"/><path d="M78.69 38.26c-1.19 0-2.16.97-2.16 2.16s.97 2.16 2.16 2.16 2.16-.97 2.16-2.16-.97-2.16-2.16-2.16zM78.43 45.1c-1.84 0-3.33 1.49-3.33 3.33s1.49 3.33 3.33 3.33 3.33-1.49 3.33-3.33-1.49-3.33-3.33-3.33zM64.26 45.12c-1.84 0-3.33 1.49-3.33 3.33s1.49 3.33 3.33 3.33 3.33-1.49 3.33-3.33-1.49-3.33-3.33-3.33zM57.15 32.87c-1.84 0-3.33 1.49-3.33 3.33s1.49 3.33 3.33 3.33 3.33-1.49 3.33-3.33-1.49-3.33-3.33-3.33zM64.22 27.23c1.84 0 3.33-1.49 3.33-3.33s-1.49-3.33-3.33-3.33-3.33 1.49-3.33 3.33 1.49 3.33 3.33 3.33zM78.39 27.21c1.84 0 3.33-1.49 3.33-3.33s-1.49-3.33-3.33-3.33-3.33 1.49-3.33 3.33 1.49 3.33 3.33 3.33z"/><circle cx="85.5" cy="36.14" r="3.33"/><g><path d="M90 .06H2.82L.06 2.94v115.1c.59 0 1.17-.1 1.72-.26l1.04 1.09H90l2.88-2.88V2.94L90 .06zm.05 106.47a6.415 6.415 0 0 0-3.65-1.13 6.27 6.27 0 0 0-6.26 6.26c0 1.69.65 3.22 1.71 4.37H4.6c1.1-1.15 1.78-2.69 1.78-4.37 0-2.43-1.42-4.53-3.49-5.57V38.12c2.05-1.08 3.49-3.23 3.49-5.66s-1.42-4.53-3.49-5.57V4.08L4.03 2.9h54.98v8.79h17.35v-8.8h5.57a6.245 6.245 0 0 0-1.78 4.37c0 3.52 2.81 6.38 6.26 6.38 1.34 0 2.6-.44 3.65-1.19v94.08z"/></g></svg>