<svg xmlns="http://www.w3.org/2000/svg" viewBox="0 0 118.92 118.92"><path d="M116.1.06H2.94L.06 2.94v113.04l2.88 2.88H116.1l2.76-2.88V2.94L116.1.06zm-.64 114.55l-.81.85H97.96a6.378 6.378 0 0 0 1.24-3.8c0-3.45-2.81-6.26-6.26-6.26s-6.38 2.81-6.38 6.26c0 1.41.49 2.73 1.3 3.8h-76.3a6.378 6.378 0 0 0 1.24-3.8 6.27 6.27 0 0 0-6.26-6.26c-1.12 0-2.16.28-3.08.78V12.82c.92.52 1.97.82 3.08.82 3.45 0 6.26-2.86 6.26-6.38 0-1.43-.49-2.74-1.3-3.8h103.14l.81.85v110.31z"/><path d="M92.94 26.2c-3.52 0-6.38 2.81-6.38 6.26s2.92 6.38 6.38 6.38 6.26-2.86 6.26-6.38-2.81-6.26-6.26-6.26z"/></svg>