<svg xmlns="http://www.w3.org/2000/svg" viewBox="0 0 92.9 118.9"><defs><style>.cls-1,.cls-2{fill:none;stroke:#000;stroke-miterlimit:10;stroke-width:.1px}</style></defs><g id="Cut"><path class="cls-2" d="M89.9 0H2.8L0 2.9v25c2.5 0 4.6 2 4.6 4.5S2.5 37 0 37.1v70c2.5 0 4.6 2.1 4.6 4.6s-2 4.4-4.3 4.6l2.5 2.6H90l2.9-2.9V2.9l-3-2.9zM74.6 10H60.7V4.6h13.9V10zm11.7 106.3c-2.5 0-4.6-2.2-4.6-4.7s2-4.6 4.6-4.6 4.7 2 4.7 4.6-2.2 4.7-4.7 4.7zm0-104.4c-2.5 0-4.6-2.2-4.6-4.7s2-4.6 4.6-4.6 4.7 2 4.7 4.6-2.2 4.7-4.7 4.7z"/><g id="Layer_4"><circle class="cls-1" cx="71.3" cy="36.1" r="2.8"/><circle class="cls-1" cx="71.3" cy="44.6" r="1.7"/><circle class="cls-1" cx="63.9" cy="40.4" r="1.7"/><circle class="cls-1" cx="63.9" cy="31.9" r="1.7"/><circle class="cls-1" cx="71.3" cy="27.6" r="1.7"/><circle class="cls-1" cx="78.6" cy="31.9" r="1.7"/><circle class="cls-1" cx="78.6" cy="40.4" r="1.7"/><circle class="cls-1" cx="78.4" cy="48.4" r="2.8"/><circle class="cls-1" cx="64.2" cy="48.4" r="2.8"/><circle class="cls-1" cx="57.1" cy="36.1" r="2.8"/><circle class="cls-1" cx="64.2" cy="23.8" r="2.8"/><circle class="cls-1" cx="78.3" cy="23.8" r="2.8"/><circle class="cls-1" cx="85.4" cy="36.1" r="2.8"/></g></g></svg>