<svg xmlns="http://www.w3.org/2000/svg" viewBox="0 0 118.92 118.92"><path fill="none" stroke="#000" stroke-miterlimit="10" stroke-width=".12" d="M118.86 115.98l-2.88 2.88H2.82l-2.76-2.88V2.94L2.82.06h113.16l2.88 2.88v113.04z"/><path d="M14.1 64.86c0 1.2-.96 2.16-2.16 2.16s-2.04-.96-2.04-2.16.84-2.04 2.04-2.04 2.16.84 2.16 2.04zM30.66 111.66c0 2.52-2.16 4.68-4.68 4.68s-4.56-2.16-4.56-4.68 2.04-4.56 4.56-4.56 4.68 2.04 4.68 4.56zM13.38 86.46c0 1.32-1.2 2.52-2.52 2.52s-2.4-1.2-2.4-2.52 1.08-2.4 2.4-2.4 2.52 1.08 2.52 2.4zM13.38 93.66c0 1.32-1.2 2.52-2.52 2.52s-2.4-1.2-2.4-2.52 1.08-2.4 2.4-2.4 2.52 1.08 2.52 2.4zM13.38 100.86c0 1.32-1.2 2.52-2.52 2.52s-2.4-1.2-2.4-2.52 1.08-2.4 2.4-2.4 2.52 1.08 2.52 2.4zM8.46 105.66h4.8v4.8h-4.8zM14.1 72.06c0 1.2-.96 2.16-2.16 2.16s-2.04-.96-2.04-2.16.84-2.04 2.04-2.04 2.16.84 2.16 2.04zM14.1 57.66c0 1.2-.96 2.16-2.16 2.16s-2.04-.96-2.04-2.16.84-2.04 2.04-2.04 2.16.84 2.16 2.04zM56.46 72.06c0 1.32-1.08 2.4-2.4 2.4s-2.28-1.08-2.28-2.4.96-2.28 2.28-2.28 2.4.96 2.4 2.28zM56.46 64.86c0 1.32-1.08 2.4-2.4 2.4s-2.28-1.08-2.28-2.4.96-2.28 2.28-2.28 2.4.96 2.4 2.28zM52.5 56.1h3.12v3.12H52.5z"/><path fill="none" stroke="#000" stroke-linecap="round" stroke-linejoin="round" stroke-width="1.44" d="M52.5 59.22h3.12M55.62 59.22V56.1M55.62 56.1H52.5M52.5 56.1v3.12"/><path d="M34.86 57.66c0 1.32-1.08 2.4-2.4 2.4s-2.28-1.08-2.28-2.4.96-2.28 2.28-2.28 2.4.96 2.4 2.28zM45.66 64.86c0 1.32-1.08 2.4-2.4 2.4s-2.28-1.08-2.28-2.4.96-2.28 2.28-2.28 2.4.96 2.4 2.28zM34.86 64.74c0 1.32-1.08 2.4-2.4 2.4s-2.28-1.08-2.28-2.4.96-2.28 2.28-2.28 2.4.96 2.4 2.28zM78.06 100.86c0 1.32-1.08 2.4-2.4 2.4s-2.28-1.08-2.28-2.4.96-2.28 2.28-2.28 2.4.96 2.4 2.28zM78.06 86.46c0 1.32-1.08 2.4-2.4 2.4s-2.28-1.08-2.28-2.4.96-2.28 2.28-2.28 2.4.96 2.4 2.28zM103.26 100.86c0 1.32-1.08 2.4-2.4 2.4s-2.28-1.08-2.28-2.4.96-2.28 2.28-2.28 2.4.96 2.4 2.28zM117.06 111.66c0 2.52-2.16 4.68-4.68 4.68s-4.56-2.16-4.56-4.68 2.04-4.56 4.56-4.56 4.68 2.04 4.68 4.56zM78.06 93.66c0 1.32-1.08 2.4-2.4 2.4s-2.28-1.08-2.28-2.4.96-2.28 2.28-2.28 2.4.96 2.4 2.28zM88.86 86.46c0 1.32-1.08 2.4-2.4 2.4s-2.28-1.08-2.28-2.4.96-2.28 2.28-2.28 2.4.96 2.4 2.28zM78.06 64.86c0 1.32-1.08 2.4-2.4 2.4s-2.28-1.08-2.28-2.4.96-2.28 2.28-2.28 2.4.96 2.4 2.28zM78.06 72.06c0 1.32-1.08 2.4-2.4 2.4s-2.28-1.08-2.28-2.4.96-2.28 2.28-2.28 2.4.96 2.4 2.28zM78.06 79.26c0 1.32-1.08 2.4-2.4 2.4s-2.28-1.08-2.28-2.4.96-2.28 2.28-2.28 2.4.96 2.4 2.28zM103.26 72.06c0 1.32-1.08 2.4-2.4 2.4s-2.28-1.08-2.28-2.4.96-2.28 2.28-2.28 2.4.96 2.4 2.28zM78.06 57.66c0 1.32-1.08 2.4-2.4 2.4s-2.28-1.08-2.28-2.4.96-2.28 2.28-2.28 2.4.96 2.4 2.28zM88.86 57.66c0 1.32-1.08 2.4-2.4 2.4s-2.28-1.08-2.28-2.4.96-2.28 2.28-2.28 2.4.96 2.4 2.28zM56.46 79.26c0 1.32-1.08 2.4-2.4 2.4s-2.28-1.08-2.28-2.4.96-2.28 2.28-2.28 2.4.96 2.4 2.28zM56.46 86.46c0 1.32-1.08 2.4-2.4 2.4s-2.28-1.08-2.28-2.4.96-2.28 2.28-2.28 2.4.96 2.4 2.28zM56.46 93.66c0 1.32-1.08 2.4-2.4 2.4s-2.28-1.08-2.28-2.4.96-2.28 2.28-2.28 2.4.96 2.4 2.28zM56.46 100.86c0 1.32-1.08 2.4-2.4 2.4s-2.28-1.08-2.28-2.4.96-2.28 2.28-2.28 2.4.96 2.4 2.28zM74.46 39.66c0 1.32-1.08 2.4-2.4 2.4s-2.28-1.08-2.28-2.4.96-2.28 2.28-2.28 2.4.96 2.4 2.28zM67.26 39.66c0 1.32-1.08 2.4-2.4 2.4s-2.28-1.08-2.28-2.4.96-2.28 2.28-2.28 2.4.96 2.4 2.28zM67.26 18.06c0 1.32-1.08 2.4-2.4 2.4s-2.28-1.08-2.28-2.4.96-2.28 2.28-2.28 2.4.96 2.4 2.28zM60.06 39.66c0 1.32-1.08 2.4-2.4 2.4s-2.28-1.08-2.28-2.4.96-2.28 2.28-2.28 2.4.96 2.4 2.28zM70.5 16.5h3.12v3.12H70.5z"/><path fill="none" stroke="#000" stroke-linecap="round" stroke-linejoin="round" stroke-width="1.44" d="M70.5 16.5v3.12M70.5 19.62h3.12M73.62 19.62V16.5M73.62 16.5H70.5"/><path d="M13.38 17.58c0 1.32-1.2 2.52-2.52 2.52s-2.4-1.2-2.4-2.52 1.08-2.4 2.4-2.4 2.52 1.08 2.52 2.4zM30.66 32.46c0 2.52-2.16 4.68-4.68 4.68s-4.56-2.16-4.56-4.68 2.04-4.56 4.56-4.56 4.68 2.04 4.68 4.56zM13.38 43.26c0 1.32-1.2 2.52-2.52 2.52s-2.4-1.2-2.4-2.52 1.08-2.4 2.4-2.4 2.52 1.08 2.52 2.4zM8.46 33.66h4.8v4.8h-4.8zM117.06 7.26c0 2.52-2.16 4.68-4.68 4.68s-4.56-2.16-4.56-4.68 2.04-4.56 4.56-4.56 4.68 2.04 4.68 4.56zM100.26 25.26c0 1.68-1.32 3-3 3s-2.88-1.32-2.88-3 1.2-2.88 2.88-2.88 3 1.2 3 2.88zM92.7 7.26c0 1.44-1.2 2.64-2.64 2.64s-2.52-1.2-2.52-2.64 1.08-2.52 2.52-2.52 2.64 1.08 2.64 2.52z"/><path d="M94.62 4.74h5.16v5.04h-5.16V4.74zm-.24 39.24h5.64v5.64h-5.64v-5.64z" fill-rule="evenodd"/><path d="M74.46 7.26c0 1.32-1.08 2.4-2.4 2.4s-2.28-1.08-2.28-2.4.96-2.28 2.28-2.28 2.4.96 2.4 2.28zM60.06 18.06c0 1.32-1.08 2.4-2.4 2.4s-2.28-1.08-2.28-2.4.96-2.28 2.28-2.28 2.4.96 2.4 2.28zM45.66 36.06c0 1.32-1.08 2.4-2.4 2.4s-2.28-1.08-2.28-2.4.96-2.28 2.28-2.28 2.4.96 2.4 2.28zM45.66 7.26c0 1.32-1.08 2.4-2.4 2.4s-2.28-1.08-2.28-2.4.96-2.28 2.28-2.28 2.4.96 2.4 2.28zM8.46 7.86h4.8v4.92h-4.8zM20.94 17.58c0 1.32-1.2 2.52-2.52 2.52s-2.4-1.2-2.4-2.52 1.08-2.4 2.4-2.4 2.52 1.08 2.52 2.4zM34.86 17.58c0 1.32-1.08 2.4-2.4 2.4s-2.28-1.08-2.28-2.4.96-2.28 2.28-2.28 2.4.96 2.4 2.28zM34.86 10.5c0 1.32-1.08 2.4-2.4 2.4s-2.28-1.08-2.28-2.4.96-2.28 2.28-2.28 2.4.96 2.4 2.28zM16.02 7.86h4.8v4.92h-4.8zM117.06 111.66c0 2.52-2.16 4.68-4.68 4.68s-4.56-2.16-4.56-4.68 2.04-4.56 4.56-4.56 4.68 2.04 4.68 4.56zM30.66 111.66c0 2.52-2.16 4.68-4.68 4.68s-4.56-2.16-4.56-4.68 2.04-4.56 4.56-4.56 4.68 2.04 4.68 4.56zM30.66 32.46c0 2.52-2.16 4.68-4.68 4.68s-4.56-2.16-4.56-4.68 2.04-4.56 4.56-4.56 4.68 2.04 4.68 4.56zM117.06 7.26c0 2.52-2.16 4.68-4.68 4.68s-4.56-2.16-4.56-4.68 2.04-4.56 4.56-4.56 4.68 2.04 4.68 4.56z"/></svg>