<svg xmlns="http://www.w3.org/2000/svg" viewBox="0 0 118.8 118.8"><path d="M2.52 105.84h.84v.84c0 .13.11.24.24.24s.24-.11.24-.24v-.84h.84c.13 0 .24-.11.24-.24s-.11-.24-.24-.24h-.84v-.84c0-.13-.11-.24-.24-.24s-.24.11-.24.24v.84h-.84c-.13 0-.24.11-.24.24s.11.24.24.24zM5.3 107.88l-1.32-.12c-.1 0-.2.05-.24.14-.04.09-.02.2.05.27l.09.09.08.16v.61l-.08.16-.22.14h-.61l-.15-.08-.14-.22v-.61l.08-.16.09-.09c.09-.09.09-.25 0-.34a.248.248 0 0 0-.34 0l-.12.12s-.03.04-.04.06l-.12.24s-.03.07-.03.11v.72s0 .07.03.11l.12.24s.03.04.04.06l.12.12s.04.03.06.04l.24.12s.07.03.11.03h.72s.07 0 .11-.03l.24-.12s.04-.03.06-.04l.12-.12s.03-.04.04-.06l.12-.24s.03-.07.03-.11v-.72s0-.05-.01-.08l.61.06v1.1c0 .13.11.24.24.24s.24-.11.24-.24v-1.32a.24.24 0 0 0-.22-.24zM5.51 110.32a.25.25 0 0 0-.31-.15l-2.76.96c-.1.03-.16.12-.16.23s.06.19.16.23l2.76.96s.05.01.08.01c.1 0 .19-.06.23-.16a.25.25 0 0 0-.15-.31l-2.11-.73 2.11-.73c.13-.04.19-.18.15-.31zM8.15 114.16a.236.236 0 0 0-.12-.14l-.48-.24s-.07-.03-.11-.03H6.36c-.13 0-.24.11-.24.24v2.88c0 .13.11.24.24.24s.24-.11.24-.24v-1.2h.84s.07 0 .11-.03l.48-.24s.08-.06.11-.11l.12-.24s.03-.07.03-.11v-.36s0-.05-.01-.08l-.12-.36zm-.35.74l-.06.12-.36.18H6.6v-.96h.78l.34.17.08.23v.26zM11.04 114.31s-.03-.09-.07-.12l-.24-.24s-.04-.03-.06-.04l-.24-.12s-.07-.03-.11-.03h-.6s-.07 0-.11.03l-.24.12s-.04.03-.06.04l-.24.24s-.06.08-.07.12l-.12.65v1.02l.13.48c0 .03.02.05.03.08l.24.36s.06.06.09.08l.24.12s.07.03.11.03h.6s.07 0 .11-.03l.24-.12s.07-.05.09-.08l.24-.36s.03-.05.03-.07l.13-.54v-1.01l-.12-.6zm-.46 1.99l-.18.27-.13.07h-.49l-.13-.07-.18-.27-.1-.38v-.91l.1-.53.16-.16.15-.08h.49l.15.08.16.16.1.48v.9l-.1.44zM14.46 113.77a.243.243 0 0 0-.29.17l-.51 2.02-.35-1.19c-.03-.1-.14-.17-.24-.17-.11 0-.2.08-.23.19l-.25 1.08-.48-1.92a.228.228 0 0 0-.29-.17c-.13.03-.21.16-.17.29l.72 2.88a.235.235 0 0 0 .46-.01l.27-1.16.34 1.17c.03.1.12.17.23.17.11 0 .2-.08.23-.18l.72-2.88a.243.243 0 0 0-.17-.29zM16.8 114.24c.13 0 .24-.11.24-.24s-.11-.24-.24-.24h-1.32c-.13 0-.24.11-.24.24v2.88c0 .13.11.24.24.24h1.32c.13 0 .24-.11.24-.24s-.11-.24-.24-.24h-1.08v-1.08h.6c.13 0 .24-.11.24-.24s-.11-.24-.24-.24h-.6v-.84h1.08zM19.43 115.53s.04-.03.06-.04l.12-.12s.03-.04.04-.06l.12-.24s.03-.07.03-.11v-.36s0-.05-.01-.08l-.12-.36s-.03-.07-.06-.09l-.12-.12s-.04-.03-.06-.04l-.24-.12s-.07-.03-.11-.03H18c-.13 0-.24.11-.24.24v2.88c0 .13.11.24.24.24s.24-.11.24-.24v-1.2h.34l.77 1.32c.04.08.12.12.21.12.04 0 .08-.01.12-.03.11-.07.15-.21.09-.33l-.64-1.09s.04 0 .06-.01l.24-.12zm-1.19-1.29h.78l.15.08.05.05.09.27v.26l-.08.15-.22.14h-.78v-.96zM14.64 107.82c-.1 0-.18.08-.18.18v3.78H10.8c-.1 0-.18.08-.18.18s.08.18.18.18h3.84c.1 0 .18-.08.18-.18V108c0-.1-.08-.18-.18-.18zM4.2 60c-.13 0-.24.11-.24.24v.6H1.44c-.13 0-.24.11-.24.24s.11.24.24.24h2.52v.6c0 .13.11.24.24.24s.24-.11.24-.24v-1.68c0-.13-.11-.24-.24-.24zM1.76 63.26l.26-.26H4.2c.13 0 .24-.11.24-.24s-.11-.24-.24-.24H1.92c-.06 0-.12.03-.17.07l-.36.36s-.03.04-.04.06l-.12.24s-.03.07-.03.11v.48s0 .05.01.08l.12.36s.03.07.06.09l.12.12s.04.03.06.05l.24.12s.07.03.11.03H4.2c.13 0 .24-.11.24-.24s-.11-.24-.24-.24H1.98l-.15-.08-.05-.05-.09-.27v-.38l.08-.15zM4.2 67.2H2.3l2.03-1.24c.09-.06.14-.17.11-.27a.246.246 0 0 0-.23-.18H1.44c-.13 0-.24.11-.24.24s.11.24.24.24h1.9l-2.03 1.24c-.09.06-.14.17-.11.27.03.1.12.18.23.18h2.76c.13 0 .24-.11.24-.24s-.11-.24-.24-.24zM4.2 68.52H1.44c-.13 0-.24.11-.24.24v1.32c0 .13.11.24.24.24s.24-.11.24-.24V69h.96v.72c0 .13.11.24.24.24s.24-.11.24-.24V69h.84v1.08c0 .13.11.24.24.24s.24-.11.24-.24v-1.32c0-.13-.11-.24-.24-.24zM17.4 67.92c-.13 0-.24.11-.24.24v.48h-2.52c-.1 0-.18.06-.22.15s-.02.19.05.26l.84.84s.11.07.17.07.12-.02.17-.07c.09-.09.09-.25 0-.34l-.43-.43h1.94v.6c0 .13.11.24.24.24s.24-.11.24-.24v-1.56c0-.13-.11-.24-.24-.24zM17.51 65.68s-.03-.07-.06-.09l-.12-.12s-.04-.03-.06-.04l-.24-.12s-.04-.02-.06-.02l-.65-.12h-.65l-.6.12c-.02 0-.04.01-.06.02l-.24.12s-.04.03-.06.04l-.12.12s-.05.06-.06.09l-.12.36s-.01.05-.01.08v.24s0 .07.03.11l.12.24s.03.04.05.06l.12.12s.04.03.06.04l.86.37s.06.02.09.02h.6s.06 0 .09-.02l.62-.25.24-.12s.04-.03.06-.04l.12-.12s.03-.04.05-.06l.12-.24s.03-.07.03-.11v-.24s0-.05-.01-.08l-.12-.36zm-.35.62l-.08.15-.07.06-.74.32h-.51l-.54-.21-.21-.1-.14-.22v-.14l.09-.27.23-.14.52-.11h.55l.57.11.18.09.05.05.09.27v.14zM17.49 63.01s-.03-.04-.04-.06l-.12-.12s-.04-.03-.06-.04l-.24-.12s-.04-.02-.06-.02l-.65-.12h-.65l-.6.12c-.02 0-.04.01-.06.02l-.24.12s-.04.03-.06.04l-.12.12s-.03.04-.04.06l-.12.24s-.03.07-.03.11v.24s0 .05.01.08l.12.36s.03.07.06.09l.12.12s.04.03.06.04l.24.12s.04.02.06.02l.65.12h.65l.6-.12c.02 0 .04-.01.06-.02l.24-.12s.04-.03.06-.04l.12-.12s.05-.06.06-.09l.12-.36s.01-.05.01-.08v-.24s0-.07-.03-.11l-.12-.24zm-.33.55l-.09.27-.23.14-.52.11h-.55l-.57-.11-.18-.09-.05-.05-.09-.27v-.14l.08-.15.24-.15.52-.11h.55l.57.11.18.09.14.22v.14zM14.4 61.44c0 .13.11.24.24.24h2.76c.13 0 .24-.11.24-.24s-.11-.24-.24-.24h-1.1l-.1-.1 1.34-1.03c.1-.08.12-.23.04-.34-.08-.11-.23-.12-.34-.04l-1.39 1.07-1.05-1.05c-.09-.09-.25-.09-.34 0s-.09.25 0 .34l1.15 1.15h-.98c-.13 0-.24.11-.24.24zM9.48 77.04c-.13 0-.24.11-.24.24v2l-.1.29-.17.26-.33.09H8.4c-.13 0-.24.11-.24.24s.11.24.24.24h.3l.48-.13c.06-.01.11-.05.14-.1l.24-.36.03-.06.12-.36s.01-.05.01-.08v-2.04c0-.13-.11-.24-.24-.24zM12.56 78.83l-.27-.39-.12-.12s-.04-.03-.06-.05l-.21-.1.64-.72c.06-.07.08-.17.04-.26a.23.23 0 0 0-.22-.14h-1.8c-.13 0-.24.11-.24.24s.11.24.24.24h1.27l-.6.68c-.06.07-.08.17-.04.26s.12.14.22.14h.3l.16.08.26.35v.43l-.17.17s-.03.04-.05.06l-.08.17-.12.06h-.73l-.12-.06-.08-.17a.237.237 0 0 0-.32-.11c-.12.06-.17.2-.11.32l.12.24s.06.08.11.11l.24.12s.07.03.11.03h.84s.07 0 .11-.03l.24-.12s.08-.06.11-.11l.1-.21.21-.21s.07-.11.07-.17v-.6s-.01-.09-.04-.13zM9.23 50.8s-.03-.07-.06-.09l-.12-.12s-.04-.03-.06-.04l-.24-.12s-.07-.03-.11-.03H7.56c-.13 0-.24.11-.24.24v2.88c0 .13.11.24.24.24s.24-.11.24-.24v-1.2h.84s.07 0 .11-.03l.24-.12s.04-.03.06-.04l.12-.12s.03-.04.05-.06l.12-.24s.03-.07.03-.11v-.36s0-.05-.01-.08l-.12-.36zm-.35.74l-.08.15-.22.14H7.8v-.96h.78l.15.08.05.05.09.27v.26zM12.24 50.95s-.03-.09-.07-.12l-.24-.24s-.04-.03-.06-.04l-.24-.12s-.07-.03-.11-.03h-.6s-.07 0-.11.03l-.24.12s-.04.03-.06.04l-.24.24s-.04.05-.05.08l-.24.6s-.02.06-.02.09v.96s0 .07.03.11l.26.51.24.36s.06.06.09.08l.24.12s.07.03.11.03h.6s.07 0 .11-.03l.24-.12s.07-.05.09-.08l.24-.36s.03-.05.03-.08l.13-.54v-1.01l-.12-.6zm-.46 1.99l-.18.27-.13.07h-.49l-.13-.07-.19-.28-.21-.43v-.86l.2-.51.18-.18.15-.08h.49l.15.08.16.16.1.48v.9l-.1.44zM14.52 50.4h-1.56c-.13 0-.24.11-.24.24s.11.24.24.24h.6v2.64c0 .13.11.24.24.24s.24-.11.24-.24v-2.64h.48c.13 0 .24-.11.24-.24s-.11-.24-.24-.24zM17.04 53.28h-.6v-2.64c0-.11-.07-.2-.17-.23s-.21 0-.27.1l-.21.32-.33.33-.21.1c-.12.06-.17.2-.11.32.06.12.2.17.32.11l.24-.12s.04-.03.06-.05l.19-.19v1.94h-.6c-.13 0-.24.11-.24.24s.11.24.24.24h1.68c.13 0 .24-.11.24-.24s-.11-.24-.24-.24zM11.28 55.14c.1 0 .18-.08.18-.18s-.08-.18-.18-.18H5.4c-.1 0-.18.08-.18.18v19.68c0 .1.08.18.18.18h5.88c.1 0 .18-.08.18-.18s-.08-.18-.18-.18h-5.7V55.14h5.7z"/><path d="M18.84 54.78h-6.36c-.1 0-.18.08-.18.18s.08.18.18.18h6.18v19.32h-6.18c-.1 0-.18.08-.18.18s.08.18.18.18h6.36c.1 0 .18-.08.18-.18V54.96c0-.1-.08-.18-.18-.18zM6.84 103.8c-.07 0-.12-.05-.12-.12V90.72c0-.07.05-.12.12-.12s.12.05.12.12v12.96c0 .07-.05.12-.12.12z"/><path d="M14.64 82.26h-7.8c-.1 0-.18.08-.18.18v21.96c0 .1.08.18.18.18h7.8c.1 0 .18-.08.18-.18V82.44c0-.1-.08-.18-.18-.18zm-.18.36v21.6H7.02v-21.6h7.44zM26.76 65.4c-.13 0-.24.11-.24.24v.48H24c-.1 0-.18.06-.22.15s-.02.19.05.26l.84.84s.11.07.17.07.12-.02.17-.07c.09-.09.09-.25 0-.34l-.43-.43h1.94v.6c0 .13.11.24.24.24s.24-.11.24-.24v-1.56c0-.13-.11-.24-.24-.24zM26.87 63.16s-.03-.07-.06-.09l-.12-.12s-.04-.03-.06-.05l-.24-.12s-.04-.02-.06-.02l-.65-.12h-.65l-.6.12c-.02 0-.04.01-.06.02l-.24.12s-.04.03-.06.04l-.12.12s-.05.06-.06.09l-.12.36s-.01.05-.01.08v.24s0 .07.03.11l.12.24s.03.04.04.06l.12.12s.04.03.06.04l.86.37s.06.02.09.02h.6s.06 0 .09-.02l.62-.25.24-.12s.04-.03.06-.05l.12-.12s.03-.04.04-.06l.12-.24s.03-.07.03-.11v-.24s0-.05-.01-.08l-.12-.36zm-.35.62l-.08.16-.06.06-.74.32h-.51l-.54-.21-.21-.1-.14-.22v-.14l.09-.27.23-.14.52-.11h.55l.57.11.18.09.05.05.09.27v.14zM26.85 60.49s-.03-.04-.04-.06l-.12-.12s-.04-.03-.06-.05l-.24-.12s-.04-.02-.06-.02l-.65-.12h-.65l-.6.12c-.02 0-.04.01-.06.02l-.24.12s-.04.03-.06.04l-.12.12s-.03.04-.04.06l-.12.24s-.03.07-.03.11v.24s0 .05.01.08l.12.36s.03.07.06.09l.12.12s.04.03.06.04l.24.12s.04.02.06.02l.65.12h.65l.6-.12c.02 0 .04-.01.06-.02l.24-.12s.04-.03.06-.05l.12-.12s.05-.06.06-.09l.12-.36s.01-.05.01-.08v-.24s0-.07-.03-.11l-.12-.24zm-.33.55l-.09.27-.23.14-.52.11h-.55l-.57-.11-.18-.09-.05-.05-.09-.27v-.14l.08-.15.24-.15.52-.11h.55l.57.11.18.09.14.22v.14zM25.28 58.01l.1-.05h1.38c.13 0 .24-.11.24-.24s-.11-.24-.24-.24h-1.44s-.07 0-.11.03l-.24.12c-.06.03-.1.08-.12.14l-.12.36s-.01.05-.01.08v.36s0 .07.03.11l.04.09s-.07.1-.07.17c0 .13.11.24.24.24h1.8c.13 0 .24-.11.24-.24s-.11-.24-.24-.24H25.3l-.02-.02-.08-.15v-.26l.08-.23zM24 56.64h2.76c.13 0 .24-.11.24-.24s-.11-.24-.24-.24h-1.2v-.72c0-.13-.11-.24-.24-.24s-.24.11-.24.24v.72h-.84v-1.08c0-.13-.11-.24-.24-.24s-.24.11-.24.24v1.32c0 .13.11.24.24.24zM4.68 9.96h-.84v-.84c0-.13-.11-.24-.24-.24s-.24.11-.24.24v.84h-.84c-.13 0-.24.11-.24.24s.11.24.24.24h.84v.84c0 .13.11.24.24.24s.24-.11.24-.24v-.84h.84c.13 0 .24-.11.24-.24s-.11-.24-.24-.24zM9.84 1.68c-.13 0-.24.11-.24.24V3.9l-.1.42-.15.15-.36.1h-.24c-.13 0-.24.11-.24.24s.11.24.24.24h.3l.48-.13c.04-.01.08-.03.11-.06l.24-.24s.05-.07.06-.11l.13-.54V1.92c0-.13-.11-.24-.24-.24zM12.72 4.56h-.6V1.92c0-.11-.08-.21-.19-.23a.248.248 0 0 0-.27.13l-.21.42-.28.19-.24.12c-.12.06-.17.2-.11.32.06.12.2.17.32.11l.27-.13.23-.15v1.87h-.6c-.13 0-.24.11-.24.24s.11.24.24.24h1.68c.13 0 .24-.11.24-.24s-.11-.24-.24-.24zM10.8 6.18H6.84c-.1 0-.18.08-.18.18v3.96c0 .1.08.18.18.18s.18-.08.18-.18V6.54h3.78c.1 0 .18-.08.18-.18s-.08-.18-.18-.18zM3.6 19.08c-.13 0-.24-.11-.24-.24v-2.16c0-.13.11-.24.24-.24s.24.11.24.24v2.16c0 .13-.11.24-.24.24zM8.4 27.48c-.13 0-.24.11-.24.24v2l-.09.27-.17.17-.39.2h-.18c-.13 0-.24.11-.24.24s.11.24.24.24h.24s.07 0 .11-.03l.48-.24s.04-.03.06-.05l.24-.24s.05-.06.06-.09l.12-.36s.01-.05.01-.08v-2.04c0-.13-.11-.24-.24-.24zM11.49 27.85s-.03-.04-.05-.06l-.12-.12s-.06-.05-.09-.06l-.36-.12s-.05-.01-.08-.01H9.71c-.13 0-.24.11-.24.24v2.88c0 .13.11.24.24.24s.24-.11.24-.24v-1.2h.84s.05 0 .08-.01l.36-.12s.07-.03.09-.06l.12-.12s.03-.04.04-.06l.12-.24s.03-.07.03-.11v-.48s0-.07-.03-.11l-.12-.24zm-.33.77l-.08.15-.05.05-.27.09h-.8v-.96h.8l.27.09.13.21v.37zM14.04 30.36h-.48v-2.64c0-.1-.06-.18-.15-.22a.23.23 0 0 0-.26.05l-.39.4-.21.31-.18.09c-.12.06-.17.2-.11.32.06.12.2.17.32.11l.24-.12s.07-.05.09-.08l.16-.25v2.03h-.6c-.13 0-.24.11-.24.24s.11.24.24.24h1.56c.13 0 .24-.11.24-.24s-.11-.24-.24-.24zM10.8 31.86H6.84c-.1 0-.18.08-.18.18V36c0 .1.08.18.18.18s.18-.08.18-.18v-3.78h3.78c.1 0 .18-.08.18-.18s-.08-.18-.18-.18zM9.24 22.44c-.13 0-.24.11-.24.24v2.76c0 .13.11.24.24.24s.24-.11.24-.24v-2.76c0-.13-.11-.24-.24-.24zM12.24 22.44c-.13 0-.24.11-.24.24v1.85l-1.11-1.97a.237.237 0 0 0-.27-.11c-.11.03-.18.12-.18.23v2.76c0 .13.11.24.24.24s.24-.11.24-.24v-1.85l1.11 1.97c.04.08.12.12.21.12h.06c.11-.03.18-.12.18-.23v-2.76c0-.13-.11-.24-.24-.24zM4.2 32.28H1.44c-.13 0-.24.11-.24.24v1.44c0 .13.11.24.24.24s.24-.11.24-.24v-1.2h.96v.72c0 .13.11.24.24.24s.24-.11.24-.24v-.72h.84v1.2c0 .13.11.24.24.24s.24-.11.24-.24v-1.44c0-.13-.11-.24-.24-.24zM4.2 36.48H2.35l1.97-1.11c.09-.05.14-.16.11-.27a.235.235 0 0 0-.23-.18H1.44c-.13 0-.24.11-.24.24s.11.24.24.24h1.85l-1.97 1.11c-.09.05-.14.16-.11.27.03.11.12.18.23.18H4.2c.13 0 .24-.11.24-.24s-.11-.24-.24-.24zM4.28 38.41l-1.82-.63a.21.21 0 0 0-.18-.1c-.02 0-.03.02-.05.02l-.71-.25a.25.25 0 0 0-.31.15c-.04.12.02.26.15.31l.68.24v.99l-.68.24c-.13.04-.19.18-.15.31.03.1.13.16.23.16.03 0 .05 0 .08-.01l.71-.25s.03.02.05.02c.08 0 .14-.04.18-.1l1.82-.63c.1-.03.16-.12.16-.23s-.06-.19-.16-.23zm-1.76.56v-.66l.95.33-.95.33zM4.2 40.32H1.44c-.13 0-.24.11-.24.24v1.08s0 .07.03.11l.12.24s.03.04.04.06l.12.12s.04.03.06.04l.24.12s.07.03.11.03h.48s.07 0 .11-.03l.24-.12s.04-.03.06-.04l.12-.12.01-.01h.01s.06.06.09.07l.36.12s.05.01.08.01h.24s.07 0 .11-.03l.24-.12s.04-.03.06-.04l.12-.12s.03-.04.04-.06l.12-.24s.03-.07.03-.11v-.96c0-.13-.11-.24-.24-.24zm-1.56 1.16l-.09.27-.21.13h-.37l-.15-.08-.14-.22v-.78h.96v.68zm1.32-.02l-.08.15-.22.14h-.14l-.27-.09-.13-.21v-.66h.84v.66zM4.2 43.08H1.44c-.13 0-.24.11-.24.24v1.44c0 .13.11.24.24.24s.24-.11.24-.24v-1.2H4.2c.13 0 .24-.11.24-.24s-.11-.24-.24-.24zM4.2 45.36H1.44c-.13 0-.24.11-.24.24v1.44c0 .13.11.24.24.24s.24-.11.24-.24v-1.2h.96v.72c0 .13.11.24.24.24s.24-.11.24-.24v-.72h.84v1.2c0 .13.11.24.24.24s.24-.11.24-.24V45.6c0-.13-.11-.24-.24-.24zM14.64 39.42h-7.8c-.1 0-.18.08-.18.18v7.56c0 .1.08.18.18.18h7.8c.1 0 .18-.08.18-.18V39.6c0-.1-.08-.18-.18-.18zm-.18.36v7.2H7.02v-7.2h7.44zM40.44 18.12c-.13 0-.24.11-.24.24v.6h-2.52c-.11 0-.2.07-.23.17s0 .21.1.27l.32.21.21.2.24.36c.05.07.12.11.2.11.05 0 .09-.01.13-.04a.24.24 0 0 0 .07-.33l-.27-.4-.07-.07h1.82v.6c0 .13.11.24.24.24s.24-.11.24-.24v-1.68c0-.13-.11-.24-.24-.24zM40.53 15.97s-.03-.04-.04-.06l-.12-.12s-.04-.03-.06-.04l-.24-.12s-.04-.02-.06-.02l-.65-.12h-.65l-.6.12c-.02 0-.04.01-.06.02l-.24.12s-.04.03-.06.04l-.12.12s-.03.04-.04.06l-.12.24s-.03.07-.03.11v.24s0 .05.01.08l.12.36s.03.07.06.09l.12.12s.04.03.06.04l.24.12s.04.02.06.02l.65.12h.65l.6-.12c.02 0 .04-.01.06-.02l.24-.12s.04-.03.06-.04l.12-.12s.05-.06.06-.09l.12-.36s.01-.05.01-.08v-.24s0-.07-.03-.11l-.12-.24zm-.33.55l-.09.27-.23.14-.52.11h-.55l-.57-.11-.18-.09-.05-.05-.09-.27v-.14l.08-.15.24-.15.52-.11h.55l.57.11.18.09.14.22v.14zM40.55 13.24s-.03-.07-.06-.09l-.12-.12s-.04-.03-.06-.04l-.24-.12s-.04-.02-.06-.02l-.65-.12h-.65l-.6.12c-.02 0-.04.01-.06.02l-.24.12s-.04.03-.06.04l-.12.12s-.05.06-.06.09l-.12.36s-.01.05-.01.08v.24s0 .07.03.11l.12.24s.03.04.04.06l.12.12s.04.03.06.04l.86.37s.06.02.09.02h.6s.06 0 .09-.02l.62-.25.24-.12s.04-.03.06-.04l.12-.12s.03-.04.04-.06l.12-.24s.03-.07.03-.11v-.24s0-.05-.01-.08l-.12-.36zm-.35.62l-.08.15-.07.07-.74.32h-.51l-.54-.21-.21-.1-.14-.22v-.14l.09-.27.23-.14.52-.11h.55l.57.11.18.09.05.05.09.27v.14zM38.94 10.86l.12-.06h1.38c.13 0 .24-.11.24-.24s-.11-.24-.24-.24H39s-.07 0-.11.03l-.24.12s-.08.06-.11.11l-.12.24s-.03.07-.03.11v.48s0 .07.03.11l.04.09s-.07.1-.07.17c0 .13.11.24.24.24h1.8c.13 0 .24-.11.24-.24s-.11-.24-.24-.24h-1.46l-.02-.02-.08-.15V11l.06-.12zM37.68 9.48h2.76c.13 0 .24-.11.24-.24S40.57 9 40.44 9h-1.2v-.72c0-.13-.11-.24-.24-.24s-.24.11-.24.24V9h-.84V7.8c0-.13-.11-.24-.24-.24s-.24.11-.24.24v1.44c0 .13.11.24.24.24zM34.55 41.8s-.03-.07-.06-.09l-.12-.12s-.06-.05-.09-.06l-.36-.12s-.05-.01-.08-.01h-1.08c-.13 0-.24.11-.24.24v2.88c0 .13.11.24.24.24s.24-.11.24-.24v-1.2h.35l.89 1.33c.05.07.12.11.2.11.05 0 .09-.01.13-.04a.24.24 0 0 0 .07-.33l-.72-1.08.36-.12s.07-.03.09-.06l.12-.12s.03-.04.05-.06l.12-.24s.03-.07.03-.11v-.36s0-.05-.01-.08l-.12-.36zm-.35.74l-.08.15-.05.05-.27.09H33v-.96h.8l.27.09.13.31v.26zM37.2 43.32h-.12v-.72c0-.13-.11-.24-.24-.24s-.24.11-.24.24v.72h-.76l.51-1.73a.244.244 0 0 0-.16-.3.244.244 0 0 0-.3.16l-.6 2.04c-.02.07 0 .15.04.21.05.06.12.1.19.1h1.08v.72c0 .13.11.24.24.24s.24-.11.24-.24v-.72h.12c.13 0 .24-.11.24-.24s-.11-.24-.24-.24zM25.2 19.08c-.13 0-.24-.11-.24-.24v-2.16c0-.13.11-.24.24-.24s.24.11.24.24v2.16c0 .13-.11.24-.24.24zM26.28 9.96h-.84v-.84c0-.13-.11-.24-.24-.24s-.24.11-.24.24v.84h-.84c-.13 0-.24.11-.24.24s.11.24.24.24h.84v.84c0 .13.11.24.24.24s.24-.11.24-.24v-.84h.84c.13 0 .24-.11.24-.24s-.11-.24-.24-.24zM30.56 2.55l.26-.18.3-.1h.14l.42.1.07.07c.09.09.25.09.34 0 .09-.09.09-.25 0-.34l-.12-.12s-.07-.05-.11-.06l-.54-.13h-.24s-.05 0-.08.01l-.36.12-.06.03-.36.24s-.08.07-.09.12l-.13.38-.13.54v.54l.15.53.12.24s.03.04.04.06l.36.36s.06.05.09.06l.36.12s.05.01.08.01h.3l.48-.13c.07-.02.12-.06.16-.13l.12-.24c.06-.12.01-.26-.11-.32a.237.237 0 0 0-.32.11l-.07.14-.31.08h-.2l-.27-.09-.29-.29-.08-.15-.11-.42v-.42l.11-.46.09-.28zM34.56 4.68h-.48V2.04c0-.1-.06-.18-.15-.22a.23.23 0 0 0-.26.05l-.39.4-.21.31-.18.09c-.12.06-.17.2-.11.32.06.12.2.17.32.11l.24-.12s.07-.05.09-.08l.16-.25v2.03h-.6c-.13 0-.24.11-.24.24s.11.24.24.24h1.56c.13 0 .24-.11.24-.24s-.11-.24-.24-.24zM29.64 18.42h-.3V9.54h.3c.1 0 .18-.08.18-.18s-.08-.18-.18-.18h-.48c-.1 0-.18.08-.18.18v9.24c0 .1.08.18.18.18h.48c.1 0 .18-.08.18-.18s-.08-.18-.18-.18zM35.52 9.18h-.36c-.1 0-.18.08-.18.18s.08.18.18.18h.18v8.88h-.18c-.1 0-.18.08-.18.18s.08.18.18.18h.36c.1 0 .18-.08.18-.18V9.36c0-.1-.08-.18-.18-.18zM17.4 1.68c-.13 0-.24.11-.24.24V3.9l-.1.42-.15.15-.36.1h-.24c-.13 0-.24.11-.24.24s.11.24.24.24h.3l.48-.13c.04-.01.08-.03.11-.06l.24-.24s.05-.07.06-.11l.13-.54V1.92c0-.13-.11-.24-.24-.24zM20.26 3.35l.24-.48s.03-.07.03-.11v-.24c0-.06-.03-.12-.07-.17l-.6-.6s-.11-.07-.17-.07h-.72c-.06 0-.12.03-.17.07l-.36.36c-.09.09-.09.25 0 .34s.25.09.34 0l.29-.29h.52l.46.46v.08l-.2.39-1.53 1.53c-.07.07-.09.17-.05.26s.12.15.22.15h1.8c.13 0 .24-.11.24-.24s-.11-.24-.24-.24h-1.22l1.15-1.15s.03-.04.04-.06zM18.36 6.18H14.4c-.1 0-.18.08-.18.18v3.96c0 .1.08.18.18.18s.18-.08.18-.18V6.54h3.78c.1 0 .18-.08.18-.18s-.08-.18-.18-.18zM16.8 22.99s-.03-.09-.07-.12l-.24-.24s-.04-.03-.06-.04l-.24-.12s-.07-.03-.11-.03h-.6s-.07 0-.11.03l-.24.12s-.04.03-.06.04l-.24.24s-.06.08-.07.12l-.12.65v1.02l.13.48c.01.04.03.08.06.11l.24.24s.04.03.06.05l.24.12s.07.03.11.03h.6s.07 0 .11-.03l.24-.12s.04-.03.06-.04l.24-.24s.05-.07.06-.11l.13-.54V23.6l-.12-.6zm-.46 1.97l-.17.17-.15.08h-.49l-.15-.08-.17-.17-.1-.36v-.91l.1-.53.16-.16.15-.08h.49l.15.08.16.16.1.48v.9l-.1.42zM19.56 22.44c-.13 0-.24.11-.24.24v2.22l-.08.15-.05.05-.27.09h-.38l-.15-.08-.26-.26v-2.18c0-.13-.11-.24-.24-.24s-.24.11-.24.24v2.28c0 .06.03.12.07.17l.36.36s.04.03.06.05l.24.12s.07.03.11.03h.48s.05 0 .08-.01l.36-.12s.07-.03.09-.06l.12-.12s.03-.04.04-.06l.12-.24s.03-.07.03-.11v-2.28c0-.13-.11-.24-.24-.24zM22.08 22.44h-1.56c-.13 0-.24.11-.24.24s.11.24.24.24H21v2.52c0 .13.11.24.24.24s.24-.11.24-.24v-2.52h.6c.13 0 .24-.11.24-.24s-.11-.24-.24-.24zM22.2 13.74H6.84c-.1 0-.18.08-.18.18v7.44c0 .1.08.18.18.18H22.2c.1 0 .18-.08.18-.18v-7.44c0-.1-.08-.18-.18-.18zm-7.98 7.44h-7.2V14.1h7.2v7.08zm.6-7.08h7.2v7.08h-7.2V14.1zM60.48 28.92h-.24v-.72c0-.13-.11-.24-.24-.24s-.24.11-.24.24v.72h-.74l.61-1.72a.25.25 0 0 0-.15-.31c-.13-.05-.26.02-.31.15l-.72 2.04c-.03.07-.01.16.03.22s.12.1.2.1h1.08v.72c0 .13.11.24.24.24s.24-.11.24-.24v-.72h.24c.13 0 .24-.11.24-.24s-.11-.24-.24-.24zM63.12 27c-.13 0-.24.11-.24.24v1.93l-1.11-2.05a.23.23 0 0 0-.27-.12c-.11.03-.18.12-.18.23v2.88c0 .13.11.24.24.24s.24-.11.24-.24v-1.93l1.11 2.05c.04.08.12.13.21.13h.06c.11-.03.18-.12.18-.23v-2.88c0-.13-.11-.24-.24-.24zM66.11 28.48s-.03-.07-.06-.09l-.12-.12s-.06-.05-.09-.06l-.29-.1.64-.72c.06-.07.08-.17.04-.26a.23.23 0 0 0-.22-.14h-1.8c-.13 0-.24.11-.24.24s.11.24.24.24h1.27l-.61.68c-.06.07-.08.17-.04.26s.12.14.22.14h.32l.27.09.13.31v.5l-.17.34-.23.08h-.64l-.23-.08-.08-.15c-.06-.12-.21-.17-.32-.11-.12.06-.17.2-.11.32l.12.24c.03.06.08.1.14.12l.36.12s.05.01.08.01h.72s.05 0 .08-.01l.36-.12c.06-.02.11-.06.14-.12l.24-.48s.03-.07.03-.11v-.6s0-.05-.01-.08l-.12-.36zM68.87 28.84l-.12-.36s-.03-.07-.06-.09l-.12-.12s-.04-.03-.06-.04l-.24-.12s-.07-.03-.11-.03h-.72s-.05 0-.08.01l.06-.61h1.1c.13 0 .24-.11.24-.24s-.11-.24-.24-.24H67.2a.24.24 0 0 0-.24.22l-.12 1.32c0 .1.05.2.14.24.09.04.2.02.27-.05l.09-.09.16-.08h.61l.16.08.05.05.09.27v.5l-.18.36-.12.06h-.61l-.12-.06-.08-.17c-.06-.12-.21-.17-.32-.11-.12.06-.17.2-.11.32l.12.24s.06.08.11.11l.24.12s.07.03.11.03h.72s.07 0 .11-.03l.24-.12s.08-.06.11-.11l.24-.48s.03-.07.03-.11v-.6s0-.05-.01-.08zM64.2 47.88c-.13 0-.24.11-.24.24v2.22l-.18.36-.12.06h-.49l-.12-.06-.18-.36v-2.22c0-.13-.11-.24-.24-.24s-.24.11-.24.24v2.28s0 .07.03.11l.24.48s.06.08.11.11l.24.12s.07.03.11.03h.6s.07 0 .11-.03l.24-.12s.08-.06.11-.11l.24-.48s.03-.07.03-.11v-2.28c0-.13-.11-.24-.24-.24zM67.19 49.4l.12-.36s.01-.05.01-.08v-.24s0-.05-.01-.08l-.12-.36s-.03-.07-.06-.09l-.12-.12s-.06-.05-.09-.06l-.36-.12s-.05-.01-.08-.01h-.6s-.07 0-.11.03l-.48.24c-.12.06-.17.2-.11.32.06.12.2.17.32.11l.43-.21h.5l.27.09.13.31v.16l-.09.27-1.64 1.64c-.07.07-.09.17-.05.26s.12.15.22.15h1.8c.13 0 .24-.11.24-.24s-.11-.24-.24-.24h-1.22l1.27-1.27s.05-.06.06-.09zM91.44 13.92h-.84v-.84c0-.13-.11-.24-.24-.24s-.24.11-.24.24v.84h-.84c-.13 0-.24.11-.24.24s.11.24.24.24h.84v.84c0 .13.11.24.24.24s.24-.11.24-.24v-.84h.84c.13 0 .24-.11.24-.24s-.11-.24-.24-.24zM78.96 16.2c-.13 0-.24.11-.24.24v2.22l-.18.36-.12.06h-.49l-.12-.06-.18-.36v-2.22c0-.13-.11-.24-.24-.24s-.24.11-.24.24v2.28s0 .07.03.11l.24.48s.06.08.11.11l.24.12s.07.03.11.03h.6s.07 0 .11-.03l.24-.12s.08-.06.11-.11l.24-.48s.03-.07.03-.11v-2.28c0-.13-.11-.24-.24-.24zM81.84 19.08h-.6v-2.64c0-.11-.07-.2-.17-.23s-.21 0-.27.1l-.43.65-.28.09c-.12.04-.19.18-.15.3.04.13.18.19.3.15l.36-.12c.05-.02.09-.05.12-.09l.04-.06v1.85h-.6c-.13 0-.24.11-.24.24s.11.24.24.24h1.68c.13 0 .24-.11.24-.24s-.11-.24-.24-.24zM92.51 35.92s-.03-.07-.06-.09l-.12-.12-.01-.01c.02-.02.04-.04.06-.07l.12-.24s.03-.07.03-.11v-.36s0-.07-.03-.11l-.12-.24s-.06-.08-.11-.11l-.48-.24s-.07-.03-.11-.03h-.96c-.13 0-.24.11-.24.24v2.88c0 .13.11.24.24.24h1.08s.09-.01.13-.04l.4-.27.12-.12s.03-.04.04-.06l.12-.24s.03-.07.03-.11v-.36s0-.05-.01-.08l-.12-.36zm-1.55-1.24h.66l.36.18.06.12v.25l-.06.12-.36.18h-.66v-.84zm1.2 1.98l-.08.16-.35.26h-.77V36h.69l.39.1.12.3v.26zM94.8 35.16c-.13 0-.24.11-.24.24v1.46l-.22.22h-.28l-.14-.14-.08-.15v-1.38c0-.13-.11-.24-.24-.24s-.24.11-.24.24v1.44s0 .07.03.11l.12.24s.03.04.04.06l.24.24s.11.07.17.07h.48c.06 0 .12-.03.17-.07h.01s.1.07.18.07c.13 0 .24-.11.24-.24v-1.92c0-.13-.11-.24-.24-.24zM97.32 37.08h-.96l1.15-1.54c.05-.07.06-.17.02-.25a.233.233 0 0 0-.21-.13h-1.44c-.13 0-.24.11-.24.24s.11.24.24.24h.96l-1.15 1.54c-.05.07-.06.17-.02.25.04.08.12.13.21.13h1.44c.13 0 .24-.11.24-.24s-.11-.24-.24-.24zM99.72 37.08h-1.06l1.24-1.53c.06-.07.07-.17.03-.25s-.12-.14-.22-.14h-1.56c-.13 0-.24.11-.24.24s.11.24.24.24h1.06l-1.24 1.53c-.06.07-.07.17-.03.25s.12.14.22.14h1.56c.13 0 .24-.11.24-.24s-.11-.24-.24-.24zM102.09 35.41a.236.236 0 0 0-.14-.12l-.36-.12s-.05-.01-.08-.01h-.48s-.07 0-.11.03l-.24.12s-.04.03-.06.04l-.24.24s-.07.11-.07.17v1.08c0 .06.03.12.07.17l.48.48s.11.07.17.07h.48s.09-.01.13-.04l.36-.24a.24.24 0 0 0 .07-.33.24.24 0 0 0-.33-.07l-.3.2h-.31l-.34-.34v-.19l1.26-.31c.11-.03.18-.12.18-.23v-.24s0-.07-.03-.11l-.12-.24zm-1.29.64v-.19l.14-.14.15-.08h.38l.23.08.05.1-.96.24zM104.04 35.16h-.36s-.07 0-.11.03l-.18.09c-.04-.07-.1-.12-.19-.12-.13 0-.24.11-.24.24v1.92c0 .13.11.24.24.24s.24-.11.24-.24v-1.38l.08-.15.22-.14h.3c.13 0 .24-.11.24-.24s-.11-.24-.24-.24z"/><path d="M97.2 53.58c-9.63 0-17.46-7.89-17.46-17.58s7.83-17.46 17.46-17.46 17.58 7.83 17.58 17.46-7.89 17.58-17.58 17.58zm0-34.68c-9.43 0-17.1 7.67-17.1 17.1s7.67 17.22 17.1 17.22 17.22-7.73 17.22-17.22-7.73-17.1-17.22-17.1z"/><path d="M91.2 46.56h-.84v-.84c0-.13-.11-.24-.24-.24s-.24.11-.24.24v.84h-.84c-.13 0-.24.11-.24.24s.11.24.24.24h.84v.84c0 .13.11.24.24.24s.24-.11.24-.24v-.84h.84c.13 0 .24-.11.24-.24s-.11-.24-.24-.24zM96.12 15.48h-1.2v-2.64c0-.13-.11-.24-.24-.24s-.24.11-.24.24v2.88c0 .13.11.24.24.24h1.44c.13 0 .24-.11.24-.24s-.11-.24-.24-.24zM98.4 13.08c.13 0 .24-.11.24-.24s-.11-.24-.24-.24h-1.44c-.13 0-.24.11-.24.24v2.88c0 .13.11.24.24.24h1.44c.13 0 .24-.11.24-.24s-.11-.24-.24-.24h-1.2V14.4h.72c.13 0 .24-.11.24-.24s-.11-.24-.24-.24h-.72v-.84h1.2zM101.39 13.98l-.12-.5-.12-.36s-.03-.07-.06-.09l-.24-.24s-.07-.05-.11-.06l-.54-.13h-.6c-.13 0-.24.11-.24.24v2.88c0 .13.11.24.24.24h.66l.48-.13c.06-.01.11-.05.14-.1l.25-.39.14-.29.13-.54v-.54zm-.57.91l-.11.21-.19.28-.33.09h-.36v-2.4h.3l.42.1.15.15.21.71v.42l-.09.43zM100.8 4.02h-.6c-.1 0-.18.08-.18.18s.08.18.18.18h.06v5.64h-.06c-.1 0-.18.08-.18.18s.08.18.18.18h.6c.1 0 .18-.08.18-.18v-6c0-.1-.08-.18-.18-.18zM89.4 4.38c.1 0 .18-.08.18-.18s-.08-.18-.18-.18h-3.12c-.1 0-.18.08-.18.18v6c0 .1.08.18.18.18h3.12c.1 0 .18-.08.18-.18s-.08-.18-.18-.18h-2.94V4.38h2.94zM94.08 4.02H90.6c-.1 0-.18.08-.18.18s.08.18.18.18h3.48c.1 0 .18-.08.18-.18s-.08-.18-.18-.18zM94.08 10.02H90.6c-.1 0-.18.08-.18.18s.08.18.18.18h3.48c.1 0 .18-.08.18-.18s-.08-.18-.18-.18zM75.72 26.1c.1 0 .18-.08.18-.18v-4.68c0-.1-.08-.18-.18-.18H53.76c-.1 0-.18.08-.18.18v15.12c0 .1.08.18.18.18h21.96c.1 0 .18-.08.18-.18v-4.68c0-.1-.08-.18-.18-.18-1.46 0-2.7-1.24-2.7-2.7s1.24-2.7 2.7-2.7zm-3.06 2.7c0 1.6 1.3 2.94 2.88 3.04v4.34h-21.6V21.42h21.6v4.34c-1.58.1-2.88 1.44-2.88 3.04zM57.21 12.49s-.03-.04-.04-.06l-.12-.12s-.06-.05-.09-.06l-.36-.12s-.05-.01-.08-.01h-1.08c-.13 0-.24.11-.24.24v2.88c0 .13.11.24.24.24s.24-.11.24-.24v-1.2h.35l.89 1.33c.05.07.12.11.2.11.05 0 .09-.01.13-.04a.24.24 0 0 0 .07-.33l-.72-1.08.36-.12s.07-.03.09-.06l.12-.12s.03-.04.04-.06l.12-.24s.03-.07.03-.11v-.48s0-.07-.03-.11l-.12-.24zm-.33.77l-.08.15-.05.05-.27.09h-.8v-.96h.8l.27.09.13.21v.37zM59.76 15h-.48v-2.64c0-.1-.06-.18-.15-.22a.23.23 0 0 0-.26.05l-.39.4-.2.31-.18.09c-.12.06-.17.2-.11.32.06.12.2.17.32.11l.24-.12s.07-.05.09-.08l.16-.25V15h-.6c-.13 0-.24.11-.24.24s.11.24.24.24h1.56c.13 0 .24-.11.24-.24s-.11-.24-.24-.24zM55.79 5.8s-.03-.07-.06-.09l-.12-.12s-.04-.03-.06-.04l-.24-.12s-.07-.03-.11-.03h-.72s-.07 0-.11.03l-.24.12s-.04.03-.06.04l-.12.12c-.09.09-.09.25 0 .34s.25.09.34 0l.09-.09.15-.08h.61l.15.08.05.05.09.27v.16l-.09.27-1.64 1.64c-.07.07-.09.17-.05.26s.12.15.22.15h1.8c.13 0 .24-.11.24-.24s-.11-.24-.24-.24h-1.22l1.27-1.27s.05-.06.06-.09l.12-.36s.01-.05.01-.08v-.24s0-.05-.01-.08l-.12-.36zM58.37 5.71l-.12-.12s-.04-.03-.06-.05l-.24-.12s-.07-.03-.11-.03h-.72s-.07 0-.11.03l-.24.12s-.04.03-.06.04l-.12.12c-.09.09-.09.25 0 .34s.25.09.34 0l.09-.09.15-.08h.61l.16.08.26.35v.1l-.18.27-1.56 1.68c-.06.07-.08.17-.04.26s.12.14.22.14h1.8c.13 0 .24-.11.24-.24s-.11-.24-.24-.24h-1.25l1.21-1.31.24-.36s.04-.09.04-.13v-.24s-.01-.09-.04-.13l-.27-.4zM61.31 6.66l-.12-.5-.12-.36s-.03-.07-.06-.09l-.12-.12s-.06-.05-.09-.06l-.36-.12s-.05-.01-.08-.01h-.24s-.07 0-.11.03l-.24.12s-.04.03-.06.04l-.12.12s-.05.06-.06.09l-.13.38-.13.54v.78l.15.53.24.48s.06.08.11.11l.24.12s.07.03.11.03h.24s.05 0 .08-.01l.36-.12c.06-.02.11-.06.14-.12l.26-.53.13-.54v-.78zm-.57 1.15l-.19.39-.23.08h-.15l-.12-.06-.18-.36-.11-.42v-.66l.11-.46.1-.31.21-.13h.14l.27.09.25.75v.66l-.09.43z"/><path d="M69 7.02h-1.98V3.36c0-.1-.08-.18-.18-.18H48.36c-.1 0-.18.08-.18.18v3.66h-2.1c-.1 0-.18.08-.18.18s.08.18.18.18h2.1v3.66c0 .1.08.18.18.18h18.48c.1 0 .18-.08.18-.18V7.38H69c.1 0 .18-.08.18-.18s-.08-.18-.18-.18zM48.54 3.54h18.12v7.32H48.54V3.54zM24.09 85.45s-.06-.08-.11-.11l-.24-.12s-.07-.03-.11-.03h-1.08c-.13 0-.24.11-.24.24v2.88c0 .13.11.24.24.24s.24-.11.24-.24v-1.08h.84s.07 0 .11-.03l.24-.12s.08-.06.11-.11l.24-.48s.03-.07.03-.11v-.36s0-.07-.03-.11l-.24-.48zm-.21.89l-.18.36-.12.06h-.78v-1.08h.78l.12.06.18.36v.25zM26.87 86.56a.236.236 0 0 0-.12-.14l-.48-.24s-.07-.03-.11-.03h-.36s-.07 0-.11.03l-.48.24c-.06.03-.1.08-.12.14l-.12.36s-.01.05-.01.08v.72s0 .05.01.08l.12.36c.02.06.06.11.12.14l.48.24s.07.03.11.03h.36s.07 0 .11-.03l.48-.24c.06-.03.1-.08.12-.14l.12-.36s.01-.05.01-.08V87s0-.05-.01-.08l-.12-.36zm-.35 1.12l-.08.23-.34.17h-.25l-.34-.17-.08-.23v-.64l.08-.23.34-.17h.25l.34.17.08.23v.64zM29.39 86.56s-.03-.07-.06-.09l-.12-.12s-.04-.03-.06-.05l-.24-.12s-.07-.03-.11-.03h-.48s-.07 0-.11.03l-.24.12s-.04.03-.06.05l-.12.12s-.05.06-.06.09l-.12.36s-.01.05-.01.08v.72s0 .05.01.08l.12.36s.03.07.06.09l.12.12s.04.03.06.05l.24.12s.07.03.11.03h.48s.07 0 .11-.03l.24-.12s.04-.03.06-.05l.12-.12s.05-.06.06-.09l.12-.36s.01-.05.01-.08V87s0-.05-.01-.08l-.12-.36zm-.35 1.12l-.09.27-.21.13h-.37l-.15-.08-.05-.05-.09-.27v-.64l.09-.27.21-.13h.37l.15.08.05.05.09.27v.64zM31.32 86.16h-.24s-.05 0-.08.01l-.33.11c-.04-.07-.1-.12-.19-.12-.13 0-.24.11-.24.24v1.92c0 .13.11.24.24.24s.24-.11.24-.24v-1.28l.09-.27.31-.13h.2c.13 0 .24-.11.24-.24s-.11-.24-.24-.24zM36.6 88.32v-2.88c0-.11-.08-.21-.19-.23a.248.248 0 0 0-.27.13l-.74 1.58-.74-1.58a.248.248 0 0 0-.27-.13c-.11.02-.19.12-.19.23v2.88c0 .13.11.24.24.24s.24-.11.24-.24v-1.81l.5 1.07c.08.17.36.17.43 0l.5-1.07v1.81c0 .13.11.24.24.24s.24-.11.24-.24zM38.64 88.56s.07 0 .11-.03l.03-.02s.06.04.1.04c.13 0 .24-.11.24-.24v-1.44s0-.05-.01-.08l-.12-.36a.236.236 0 0 0-.12-.14l-.24-.12s-.07-.03-.11-.03h-.6s-.07 0-.11.03l-.24.12c-.12.06-.17.2-.11.32s.2.16.32.11l.19-.09h.49l.1.05.08.23v.05l-.06.03h-.66s-.07 0-.11.03l-.24.12s-.08.06-.11.11l-.12.24s-.03.07-.03.11v.36s0 .07.03.11l.12.24s.06.08.11.11l.24.12s.07.03.11.03h.72zm-.84-.66v-.25l.06-.12.12-.06h.66v.57l-.06.03h-.61l-.12-.06-.06-.12zM40.44 86.74l.27-.1h.26l.1.05.08.23v1.4c0 .13.11.24.24.24s.24-.11.24-.24v-1.44s0-.05-.01-.08l-.12-.36a.236.236 0 0 0-.12-.14l-.24-.12s-.07-.03-.11-.03h-.36s-.05 0-.08.01l-.23.08a.227.227 0 0 0-.18-.09c-.13 0-.24.11-.24.24v1.92c0 .13.11.24.24.24s.24-.11.24-.24v-1.58zM42.81 86.16l.36-.6c.07-.11.03-.26-.08-.33a.253.253 0 0 0-.33.08l-.36.6c-.07.11-.03.26.08.33a.247.247 0 0 0 .33-.09zM45.33 88.31l.12-.24s.03-.07.03-.11v-.24s0-.07-.03-.11l-.12-.24a.236.236 0 0 0-.14-.12l-.36-.12s-.05-.01-.08-.01h-.3l-.12-.06-.06-.12.08-.25.1-.05h.26l.32.11c.13.04.26-.03.3-.15s-.03-.26-.15-.3l-.36-.12s-.05-.01-.08-.01h-.36s-.07 0-.11.03l-.24.12c-.06.03-.1.08-.12.14l-.12.36s-.01.05-.01.08v.12s0 .07.03.11l.12.24s.06.08.11.11l.24.12s.07.03.11.03h.32l.23.08.05.1v.13l-.05.1-.23.08h-.38l-.19-.09c-.12-.06-.26-.01-.32.11s-.01.26.11.32l.24.12s.07.03.11.03h.48s.05 0 .08-.01l.36-.12c.06-.02.11-.06.14-.12zM23.4 89.76c-.13 0-.24.11-.24.24v1.2h-1.08V90c0-.13-.11-.24-.24-.24s-.24.11-.24.24v2.88c0 .13.11.24.24.24s.24-.11.24-.24v-1.2h1.08v1.2c0 .13.11.24.24.24s.24-.11.24-.24V90c0-.13-.11-.24-.24-.24zM26.49 90.61l-.12-.24s-.03-.04-.04-.06l-.36-.36s-.06-.05-.09-.06l-.36-.12s-.05-.01-.08-.01h-.72c-.13 0-.24.11-.24.24v2.88c0 .13.11.24.24.24h.72s.05 0 .08-.01l.36-.12.06-.03.36-.24s.08-.07.09-.12l.13-.38.13-.54v-.54l-.15-.53zm-.44 1.47l-.09.28-.26.18-.29.1h-.44v-2.4h.44l.27.09.29.29.08.15.11.42v.42l-.11.46zM29.12 90.35l-.24-.36s-.07-.08-.12-.09l-.36-.12s-.05-.01-.08-.01h-.72c-.13 0-.24.11-.24.24v2.88c0 .13.11.24.24.24h.72s.05 0 .08-.01l.36-.12s.07-.03.09-.06l.24-.24s.05-.06.06-.09l.11-.33.24-.48s.03-.07.03-.11v-.48s0-.07-.03-.11l-.38-.75zm-.08 1.27l-.23.46-.1.31-.16.16-.27.09h-.44v-2.4h.44l.25.08.18.27.33.67v.37zM34.03 92.47l-.08.08-.27.09h-.28l-.27-.09-.16-.16-.21-.71v-.42l.09-.43.11-.21.19-.29.25-.08h.28l.23.08.08.15c.06.12.2.16.32.11.12-.06.17-.2.11-.32l-.12-.24a.236.236 0 0 0-.14-.12l-.36-.12s-.05-.01-.08-.01h-.36s-.05 0-.08.01l-.36.12c-.05.02-.09.05-.12.09l-.25.39-.14.29-.13.54v.54l.13.5.12.36s.03.07.06.09l.24.24s.06.05.09.06l.36.12s.05.01.08.01h.36s.05 0 .08-.01l.36-.12s.07-.03.09-.06l.12-.12c.09-.09.09-.25 0-.34-.09-.09-.25-.1-.34 0zM35.96 92.65l-.27-.09-.05-.1V90c0-.13-.11-.24-.24-.24s-.24.11-.24.24v2.52s0 .07.03.11l.12.24c.03.06.08.1.14.12l.36.12s.05.01.08.01c.1 0 .19-.06.23-.16a.239.239 0 0 0-.15-.3zM36.96 90.72c-.13 0-.24.11-.24.24v1.92c0 .13.11.24.24.24s.24-.11.24-.24v-1.92c0-.13-.11-.24-.24-.24zM37.13 89.83s-.04-.04-.07-.05c-.01 0-.02-.01-.04-.01a.334.334 0 0 0-.17.01l-.24.12c-.07.04-.12.1-.13.18s.01.15.07.21l.24.24h.02v.02c.04.03.09.05.14.05h.02c.06 0 .11-.02.15-.06l.03-.03c.01-.01.02-.03.03-.05l.12-.24c.05-.09.03-.2-.04-.28l-.12-.12zM38.49 91.33l.21-.13h.49l.19.09c.12.06.26.01.32-.11s.01-.26-.11-.32l-.24-.12s-.07-.03-.11-.03h-.6s-.07 0-.11.03l-.24.12s-.04.03-.06.04l-.12.12s-.05.06-.06.09l-.12.36s-.01.05-.01.08v.72s0 .05.01.08l.12.36s.03.07.06.09l.12.12s.04.03.06.04l.24.12s.07.03.11.03h.6s.07 0 .11-.03l.24-.12c.12-.06.17-.2.11-.32a.237.237 0 0 0-.32-.11l-.19.09h-.49l-.15-.08-.05-.05-.09-.27v-.64l.09-.27zM41.93 90.79a.248.248 0 0 0-.34 0l-.67.67V90c0-.13-.11-.24-.24-.24s-.24.11-.24.24v2.88c0 .13.11.24.24.24s.24-.11.24-.24v-.69l.65.84c.05.06.12.09.19.09.05 0 .1-.02.15-.05.1-.08.12-.23.04-.34l-.71-.91.69-.69c.09-.09.09-.25 0-.34zM44.27 91a.236.236 0 0 0-.12-.14l-.24-.12s-.07-.03-.11-.03h-.6s-.07 0-.11.03l-.24.12c-.06.03-.1.08-.12.14l-.12.36s-.01.05-.01.08v1.08s0 .07.03.11l.12.24s.06.08.11.11l.24.12s.07.03.11.03h.6s.07 0 .11-.03l.24-.12c.12-.06.17-.2.11-.32s-.21-.17-.32-.11l-.19.09h-.49l-.12-.06-.06-.12v-.34l1.12-.2c.11-.02.2-.12.2-.24v-.24s0-.05-.01-.08l-.12-.36zm-1.19.63v-.15l.08-.23.1-.05h.49l.1.05.08.23-.84.15zM46.2 90.72h-.24s-.07 0-.11.03l-.24.12s-.03.02-.04.03c-.03-.1-.11-.17-.21-.17-.13 0-.24.11-.24.24v1.92c0 .13.11.24.24.24s.24-.11.24-.24v-1.25l.17-.26.09-.09.15-.08h.18c.13 0 .24-.11.24-.24s-.11-.24-.24-.24zM40.68 95.16h-14.4c-.07 0-.12-.05-.12-.12s.05-.12.12-.12h14.4c.07 0 .12.05.12.12s-.05.12-.12.12zM26.33 96.97a.248.248 0 0 0-.27.13l-.74 1.58-.74-1.58a.236.236 0 0 0-.27-.13c-.11.02-.19.12-.19.23v2.88c0 .13.11.24.24.24s.24-.11.24-.24v-1.81l.5 1.07c.08.17.36.17.43 0l.5-1.07v1.81c0 .13.11.24.24.24s.24-.11.24-.24V97.2c0-.11-.08-.21-.19-.23zM28.2 96.96c-.1 0-.19.07-.23.16l-.65 1.94c-.05.04-.09.1-.09.18 0 .01.01.02.01.04l-.24.73c-.04.13.03.26.15.3.02 0 .05.01.08.01.1 0 .19-.06.23-.16l.23-.68h.92l.19.67c.04.13.17.2.3.16.13-.04.2-.17.16-.3l-.84-2.88a.237.237 0 0 0-.23-.17zM27.85 99l.33-1 .29 1h-.62zM31.65 97.21a.236.236 0 0 0-.14-.12l-.36-.12s-.05-.01-.08-.01h-1.08c-.13 0-.24.11-.24.24v2.88c0 .13.11.24.24.24s.24-.11.24-.24V99h.36l.89 1.22c.05.06.12.1.19.1.05 0 .1-.02.14-.05a.24.24 0 0 0 .05-.34l-.7-.96.34-.11c.06-.02.11-.06.14-.12l.24-.48s.03-.07.03-.11v-.36s0-.07-.03-.11l-.24-.48zm-.21.89l-.17.34-.23.08h-.8v-1.08h.8l.23.08.17.34v.25zM34.6 97.02a.248.248 0 0 0-.34.01l-1.06 1.14s-.06 0-.08.02v-1c0-.13-.11-.24-.24-.24s-.24.11-.24.24v2.88c0 .13.11.24.24.24s.24-.11.24-.24v-1.11l.13-.14.99 1.39c.05.07.12.1.2.1.05 0 .1-.01.14-.04.11-.08.13-.23.06-.33l-1.05-1.47 1.03-1.11c.09-.1.08-.25-.01-.34zM37.8 98.76h-2.04c-.13 0-.24.11-.24.24s.11.24.24.24h2.04c.13 0 .24-.11.24-.24s-.11-.24-.24-.24zM40.77 97.69l-.24-.48a.236.236 0 0 0-.14-.12l-.36-.12s-.05-.01-.08-.01h-.24s-.07 0-.11.03l-.24.12s-.08.06-.11.11l-.26.53-.13.54v.78l.13.5.12.36s.03.07.06.09l.12.12s.04.03.06.04l.24.12s.07.03.11.03h.24s.05 0 .08-.01l.36-.12s.07-.03.09-.06l.12-.12s.05-.06.06-.09l.13-.38.13-.54v-.78l-.15-.53zm-.44 1.71l-.1.31-.31.13h-.14l-.15-.08-.05-.05-.21-.71v-.66l.09-.43.2-.41.12-.06h.14l.23.08.18.34.11.42v.66l-.11.46zM43.61 98.71l-.21-.21-.1-.21s-.06-.08-.11-.11l-.21-.1.64-.72c.06-.07.08-.17.04-.26a.23.23 0 0 0-.22-.14h-1.8c-.13 0-.24.11-.24.24s.11.24.24.24h1.27l-.6.68c-.06.07-.08.17-.04.26s.12.14.22.14h.3l.12.06.08.17s.03.04.05.06l.17.17v.43l-.17.26-.09.09-.15.08h-.73l-.15-.08-.09-.09a.248.248 0 0 0-.34 0c-.09.09-.09.25 0 .34l.12.12s.04.03.06.04l.24.12s.07.03.11.03h.84s.07 0 .11-.03l.24-.12s.04-.03.06-.04l.15-.16.24-.36s.04-.09.04-.13v-.6c0-.06-.03-.12-.07-.17zM38.16 109.62h-.24s-.06 0-.08.02l-.24.12c-.02-.08-.08-.14-.16-.14-.1 0-.18.08-.18.18v1.68c0 .1.08.18.18.18s.18-.08.18-.18v-1.16l.09-.18.08-.08.18-.09h.2c.1 0 .18-.08.18-.18s-.08-.18-.18-.18zM40.12 109.84s-.05-.06-.08-.08l-.24-.12s-.05-.02-.08-.02h-.48s-.06 0-.08.02l-.24.12s-.06.05-.08.08l-.12.24s-.02.05-.02.08v.96s0 .06.02.08l.12.24s.05.06.08.08l.24.12s.05.02.08.02h.48s.06 0 .08-.02l.24-.12c.09-.04.12-.15.08-.24a.182.182 0 0 0-.24-.08l-.2.1h-.4l-.15-.07-.07-.15v-.29l1.05-.21c.08-.02.15-.09.15-.18v-.24s0-.06-.02-.08l-.12-.24zm-.22.41l-.84.17v-.22l.07-.15.15-.07h.4l.15.07.07.15v.05zM42.3 109.63c-.09-.03-.2.02-.23.11l-.45 1.25-.54-1.26c-.04-.09-.15-.14-.24-.09-.09.04-.13.14-.09.24l.72 1.68c.03.07.09.11.17.11.07 0 .14-.05.16-.12l.6-1.68c.03-.09-.02-.2-.11-.23zM43.33 111.11c-.03-.03-.06-.04-.09-.05s-.03 0-.04 0-.08.02-.11.05l-.12.12c-.07.07-.07.18 0 .25l.12.12s.04.03.06.04c.02 0 .05.01.07.01s.05 0 .07-.01c.02 0 .04-.02.06-.04l.12-.12c.07-.07.07-.18 0-.25l-.12-.12zM47.64 111.3h-.54v-2.34c0-.08-.05-.15-.13-.17-.07-.03-.16 0-.2.07l-.22.33-.22.22-.21.11c-.09.04-.13.15-.08.24.04.09.15.12.24.08l.24-.12s.03-.02.05-.03l.17-.18v1.79h-.54c-.1 0-.18.08-.18.18s.08.18.18.18h1.44c.1 0 .18-.08.18-.18s-.08-.18-.18-.18zM48.85 111.11l-.01-.01c-.03-.02-.06-.04-.09-.04h-.04s-.08.02-.11.05l-.12.12c-.07.07-.07.18 0 .25l.12.12c.03.03.07.05.12.05s.08-.02.12-.04l.12-.12c.07-.07.07-.18 0-.25l-.12-.12zM51.4 109.36l-.12-.24s-.02-.03-.03-.05l-.12-.12s-.04-.04-.07-.04l-.36-.12h-.3s-.06 0-.08.02l-.24.12s-.03.02-.05.03l-.12.12s-.02.03-.03.05l-.13.28-.13.52v.64l.14.52.12.24s.02.03.03.05l.12.12s.03.03.05.03l.24.12s.05.02.08.02h.3l.36-.12s.05-.02.07-.04l.12-.12s.02-.03.03-.05l.13-.28.13-.52v-.64l-.14-.52zm-.32 1.56l-.11.21-.07.07-.29.1h-.17l-.18-.09-.08-.08-.09-.18-.11-.44v-.56l.1-.44.11-.21.08-.08.18-.09h.17l.29.1.07.07.09.18.11.44v.56l-.1.44zM52.57 111.11c-.03-.03-.06-.04-.09-.05s-.03 0-.04 0-.08.02-.11.05l-.12.12c-.07.07-.07.18 0 .25l.12.12s.04.03.06.04c.02 0 .05.01.07.01s.05 0 .07-.01c.02 0 .04-.02.06-.04l.12-.12c.07-.07.07-.18 0-.25l-.12-.12zM55 109.36l-.12-.24s-.02-.03-.03-.05l-.12-.12s-.03-.03-.05-.03l-.24-.12s-.05-.02-.08-.02h-.24s-.06 0-.08.02l-.24.12s-.03.02-.05.03l-.12.12s-.02.03-.03.05l-.13.28-.12.52v.64l.14.52.12.24s.02.03.03.05l.12.12s.03.03.05.03l.24.12s.05.02.08.02h.24s.06 0 .08-.02l.24-.12s.03-.02.05-.03l.12-.12s.02-.03.03-.05l.13-.28.13-.52v-.64l-.14-.52zm-.32 1.56l-.11.21-.08.08-.18.09h-.16l-.18-.09-.08-.08-.09-.18-.11-.44v-.56l.1-.44.11-.21.08-.08.18-.09h.16l.18.09.08.08.09.18.11.44v.56l-.1.44zM58.95 109.91l.2-.2.18-.09h.4l.2.1c.09.04.2 0 .24-.08.04-.09 0-.2-.08-.24l-.24-.12s-.05-.02-.08-.02h-.48s-.06 0-.08.02l-.24.12s-.03.02-.05.03l-.24.24s-.03.03-.03.05l-.12.24s-.02.05-.02.08v.48s0 .06.02.08l.12.24s.02.03.03.05l.24.24s.03.03.05.03l.24.12s.05.02.08.02h.48s.06 0 .08-.02l.24-.12c.09-.04.12-.15.08-.24s-.15-.12-.24-.08l-.2.1h-.4l-.18-.09-.2-.2-.09-.18v-.39l.09-.18z"/><path d="M61.35 109.59l-.36-.6s-.04-.05-.07-.07l-.72-.36s-.03-.01-.05-.02l-.6-.12h-.07l-.6.12s-.04.01-.06.02l-.6.36s-.05.04-.06.06l-.36.6s-.02.04-.02.06l-.12.6v.07l.12.6s.01.04.02.06l.36.6s.04.05.06.06l.6.36s.04.02.06.02l.6.12h.08l.6-.12s.03 0 .04-.02l.72-.36s.06-.04.07-.07l.36-.6s.02-.04.02-.06l.12-.6v-.07l-.12-.6s-.01-.04-.02-.06zm-.32 1.22l-.32.53-.65.33-.54.11-.53-.11-.53-.32-.32-.54-.11-.53.11-.54.32-.53.53-.32.53-.11.54.11.65.33.32.53.11.54-.11.53zM63.76 109.12s-.02-.03-.03-.05l-.12-.12s-.03-.03-.05-.03l-.24-.12s-.05-.02-.08-.02h-.6s-.06 0-.08.02l-.24.12s-.03.02-.05.03l-.12.12c-.07.07-.07.18 0 .25s.18.07.25 0l.1-.1.18-.09h.52l.18.09.08.08.09.18v.17l-.1.29-1.41 1.41c-.05.05-.07.13-.04.2.03.07.09.11.17.11h1.56c.1 0 .18-.08.18-.18s-.08-.18-.18-.18H62.6l1.13-1.13s.04-.04.04-.07l.12-.36v-.3s0-.06-.02-.08l-.12-.24zM66.16 109.36l-.12-.24s-.02-.03-.03-.05l-.12-.12s-.03-.03-.05-.03l-.24-.12s-.05-.02-.08-.02h-.24s-.06 0-.08.02l-.24.12s-.03.02-.05.03l-.12.12s-.03.03-.03.05l-.13.28-.12.52v.64l.14.52.12.24s.02.03.03.05l.12.12s.03.03.05.03l.24.12s.05.02.08.02h.24s.06 0 .08-.02l.24-.12s.03-.02.05-.03l.12-.12s.02-.03.03-.05l.13-.28.12-.52v-.64l-.14-.52zm-.32 1.56l-.11.21-.08.08-.18.09h-.15l-.18-.09-.08-.08-.09-.18-.12-.44v-.56l.1-.44.11-.21.08-.08.18-.09h.16l.17.09.08.08.09.18.12.44v.56l-.1.44zM68.56 109.12s-.02-.03-.03-.05l-.12-.12s-.03-.03-.05-.03l-.24-.12s-.05-.02-.08-.02h-.6s-.06 0-.08.02l-.24.12s-.03.02-.05.03l-.12.12c-.07.07-.07.18 0 .25s.18.07.25 0l.1-.1.18-.09H68l.18.09.08.08.09.18v.17l-.1.29-1.41 1.41c-.05.05-.07.13-.04.2.03.07.09.11.17.11h1.56c.1 0 .18-.08.18-.18s-.08-.18-.18-.18H67.4l1.13-1.13s.04-.04.04-.07l.12-.36v-.3s0-.06-.02-.08l-.12-.24zM71.2 110.32l-.12-.24s-.02-.03-.03-.05l-.12-.12s-.03-.03-.05-.03l-.24-.12s-.05-.02-.08-.02h-.72s-.06 0-.08.02l-.06.03.07-.65h1.16c.1 0 .18-.08.18-.18s-.08-.18-.18-.18h-1.32c-.09 0-.17.07-.18.16l-.12 1.2c0 .08.03.15.1.18s.15.02.2-.04l.1-.1.18-.09h.63l.18.09.08.08.09.18v.51l-.09.18-.08.08-.18.09h-.63l-.18-.09-.1-.1c-.07-.07-.18-.07-.25 0s-.07.18 0 .25l.12.12s.03.03.05.03l.24.12s.05.02.08.02h.72s.06 0 .08-.02l.24-.12s.03-.02.05-.03l.12-.12s.02-.03.03-.05l.12-.24s.02-.05.02-.08v-.6s0-.06-.02-.08zM38.56 113.92s-.05-.06-.08-.08l-.24-.12s-.05-.02-.08-.02h-.36s-.06 0-.08.02l-.1.05v-.73c0-.1-.08-.18-.18-.18s-.18.08-.18.18v2.52c0 .1.08.18.18.18s.18-.08.18-.18v-1.37l.05-.05.18-.09h.27l.15.07.07.15v1.28c0 .1.08.18.18.18s.18-.08.18-.18v-1.32s0-.06-.02-.08l-.12-.24zM40.32 114.06c.1 0 .18-.08.18-.18s-.08-.18-.18-.18h-.42v-.66c0-.1-.08-.18-.18-.18s-.18.08-.18.18v.66h-.18c-.1 0-.18.08-.18.18s.08.18.18.18h.18v1.14s0 .06.02.08l.12.24s.05.06.08.08l.24.12s.05.02.08.02h.24c.1 0 .18-.08.18-.18s-.08-.18-.18-.18h-.2l-.15-.07-.07-.15v-1.1h.42zM41.88 114.06c.1 0 .18-.08.18-.18s-.08-.18-.18-.18h-.42v-.66c0-.1-.08-.18-.18-.18s-.18.08-.18.18v.66h-.3c-.1 0-.18.08-.18.18s.08.18.18.18h.3v1.14s0 .06.02.08l.12.24s.05.06.08.08l.24.12s.05.02.08.02h.24c.1 0 .18-.08.18-.18s-.08-.18-.18-.18h-.2l-.15-.07-.07-.15v-1.1h.42zM43.96 114.04s-.02-.03-.03-.05l-.12-.12s-.03-.03-.05-.03l-.24-.12s-.05-.02-.08-.02h-.48s-.06 0-.08.02l-.05.03s-.07-.04-.11-.04c-.1 0-.18.08-.18.18v2.52c0 .1.08.18.18.18s.18-.08.18-.18v-.67s.04.01.06.01h.48s.06 0 .08-.02l.24-.12s.03-.02.05-.03l.12-.12s.02-.03.03-.05l.12-.24s.02-.05.02-.08v-.72s0-.06-.02-.08l-.12-.24zm-.22 1l-.09.18-.08.08-.18.09h-.4l-.1-.05v-1.22l.1-.05h.4l.18.09.08.08.09.18v.63zM46 114.76s-.05-.06-.08-.08l-.24-.12s-.05-.02-.08-.02h-.32l-.15-.07-.07-.15.07-.18.15-.07h.27l.2.1c.09.04.2 0 .24-.08.04-.09 0-.2-.08-.24l-.24-.12s-.05-.02-.08-.02h-.36s-.06 0-.08.02l-.24.12s-.06.05-.08.08l-.12.24s-.02.05-.02.08v.12s0 .06.02.08l.12.24s.05.06.08.08l.24.12s.05.02.08.02h.32l.15.07.07.15-.07.18-.15.07h-.4l-.2-.1c-.09-.04-.2 0-.24.08-.04.09 0 .2.08.24l.24.12s.05.02.08.02h.48s.06 0 .08-.02l.24-.12s.06-.05.08-.08l.12-.24s.02-.05.02-.08v-.12s0-.06-.02-.08l-.12-.24zM47.17 115.19a.19.19 0 0 0-.1-.05h-.03-.02a.16.16 0 0 0-.11.05l-.12.12c-.07.07-.07.18 0 .25l.12.12s.07.04.12.04.09-.02.12-.05l.12-.12c.07-.07.07-.18 0-.25l-.12-.12zM47.17 113.87a.19.19 0 0 0-.1-.05h-.03-.02a.16.16 0 0 0-.11.05l-.12.12c-.07.07-.07.18 0 .25l.12.12s.07.04.12.04.09-.02.12-.05l.12-.12c.07-.07.07-.18 0-.25l-.12-.12zM49.89 112.82l-2.16 3.24c-.06.08-.03.19.05.25.03.02.06.03.1.03.06 0 .12-.03.15-.08l2.16-3.24c.06-.08.03-.19-.05-.25a.19.19 0 0 0-.25.05zM52.65 112.82l-2.28 3.24c-.06.08-.04.19.04.25.03.02.07.03.1.03.06 0 .11-.03.15-.08l2.28-3.24c.06-.08.04-.19-.04-.25-.08-.05-.19-.04-.25.04zM54.72 113.7s-.08.02-.11.04l-.05-.03s-.05-.02-.08-.02H54s-.06 0-.08.02l-.24.12s-.03.02-.05.03l-.12.12s-.02.03-.03.05l-.12.24s-.02.05-.02.08v.72s0 .06.02.08l.12.24s.02.03.03.05l.12.12s.03.03.05.03l.24.12s.05.02.08.02h.48s.04 0 .06-.01v.15l-.09.18-.08.08-.18.09h-.27l-.2-.1c-.09-.04-.2 0-.24.08s0 .2.08.24l.24.12s.05.02.08.02h.36s.06 0 .08-.02l.24-.12s.03-.02.05-.03l.12-.12s.02-.03.03-.05l.12-.24s.02-.05.02-.08v-2.04c0-.1-.08-.18-.18-.18zm-.28 1.68h-.4l-.18-.09-.08-.08-.09-.18v-.64l.09-.18.08-.08.18-.09h.4l.1.05v1.22l-.1.05zM55.92 113.7c-.1 0-.18.08-.18.18v1.68c0 .1.08.18.18.18s.18-.08.18-.18v-1.68c0-.1-.08-.18-.18-.18zM56.05 112.91s-.07-.05-.11-.05h-.04s-.07.02-.1.05l-.12.12c-.07.07-.07.18 0 .25l.12.12s.04.03.06.04c.02 0 .05.01.07.01s.05 0 .07-.01c.02 0 .04-.02.06-.04l.12-.12c.07-.07.07-.18 0-.25l-.12-.12zM57.72 114.06c.1 0 .18-.08.18-.18s-.08-.18-.18-.18h-.42v-.66c0-.1-.08-.18-.18-.18s-.18.08-.18.18v.66h-.18c-.1 0-.18.08-.18.18s.08.18.18.18h.18v1.14s0 .06.02.08l.12.24s.05.06.08.08l.24.12s.05.02.08.02h.24c.1 0 .18-.08.18-.18s-.08-.18-.18-.18h-.2l-.15-.07-.07-.15v-1.1h.42zM59.68 113.92s-.05-.06-.08-.08l-.24-.12s-.05-.02-.08-.02h-.36s-.06 0-.08.02l-.1.05v-.73c0-.1-.08-.18-.18-.18s-.18.08-.18.18v2.52c0 .1.08.18.18.18s.18-.08.18-.18v-1.37l.05-.05.18-.09h.27l.15.07.07.15v1.28c0 .1.08.18.18.18s.18-.08.18-.18v-1.32s0-.06-.02-.08l-.12-.24zM62.04 113.7c-.1 0-.18.08-.18.18v1.37l-.05.05-.18.09h-.28l-.15-.07-.07-.15v-1.28c0-.1-.08-.18-.18-.18s-.18.08-.18.18v1.32s0 .06.02.08l.12.24s.05.06.08.08l.24.12s.05.02.08.02h.36s.06 0 .08-.02l.14-.07s.08.09.14.09c.1 0 .18-.08.18-.18v-1.68c0-.1-.08-.18-.18-.18zM64.48 114.04s-.02-.03-.03-.05l-.12-.12s-.03-.03-.05-.03l-.24-.12s-.05-.02-.08-.02h-.48s-.04 0-.06.01v-.67c0-.1-.08-.18-.18-.18s-.18.08-.18.18v2.52c0 .1.08.18.18.18.04 0 .08-.02.11-.04l.05.03s.05.02.08.02h.48s.06 0 .08-.02l.24-.12s.03-.02.05-.03l.12-.12s.03-.03.03-.05l.12-.24s.02-.05.02-.08v-.72s0-.06-.02-.08l-.12-.24zm-.22 1l-.09.18-.08.08-.18.09h-.39l-.1-.05v-1.22l.1-.05h.39l.18.09.08.08.09.18v.63zM65.65 115.19s-.06-.04-.09-.05-.03 0-.04 0a.16.16 0 0 0-.11.05l-.12.12c-.07.07-.07.18 0 .25l.12.12s.04.03.06.04c.02 0 .04.01.07.01s.05 0 .07-.01c.02 0 .04-.02.06-.04l.12-.12c.07-.07.07-.18 0-.25l-.12-.12zM66.87 114.23l.08-.08.18-.09h.39l.2.1c.09.04.2 0 .24-.08.04-.09 0-.2-.08-.24l-.24-.12s-.05-.02-.08-.02h-.48s-.06 0-.08.02l-.24.12s-.03.02-.05.03l-.12.12s-.03.03-.03.05l-.12.24s-.02.05-.02.08v.72s0 .06.02.08l.12.24s.02.03.03.05l.12.12s.03.03.05.03l.24.12s.05.02.08.02h.48s.06 0 .08-.02l.24-.12c.09-.04.12-.15.08-.24-.04-.09-.15-.12-.24-.08l-.2.1h-.39l-.18-.09-.08-.08-.09-.18v-.63l.09-.18zM70.12 114.04s-.02-.03-.03-.05l-.12-.12s-.03-.03-.05-.03l-.24-.12s-.05-.02-.08-.02h-.36s-.06 0-.08.02l-.24.12s-.03.02-.05.03l-.12.12s-.03.03-.03.05l-.12.24s-.02.05-.02.08v.72s0 .05.02.08l.12.24s.02.03.03.05l.12.12s.03.03.05.03l.24.12s.05.02.08.02h.36s.06 0 .08-.02l.24-.12s.03-.02.05-.03l.12-.12s.02-.03.03-.05l.12-.24s.02-.05.02-.08v-.72s0-.06-.02-.08l-.12-.24zm-.22 1l-.09.18-.08.08-.17.09h-.28l-.18-.09-.08-.08-.09-.18v-.64l.09-.18.08-.08.18-.09h.27l.18.09.08.08.09.18v.63zM73.48 113.92s-.05-.06-.08-.08l-.24-.12s-.05-.02-.08-.02h-.36s-.06 0-.08.02l-.24.12-.04.04c-.01-.01-.02-.03-.04-.04l-.24-.12s-.05-.02-.08-.02h-.36s-.06 0-.08.02l-.14.07s-.08-.09-.14-.09c-.1 0-.18.08-.18.18v1.68c0 .1.08.18.18.18s.18-.08.18-.18v-1.37l.05-.05.18-.09h.27l.15.07.07.15v1.28c0 .1.08.18.18.18s.18-.08.18-.18v-1.28l.07-.15.15-.07h.27l.15.07.07.15v1.28c0 .1.08.18.18.18s.18-.08.18-.18v-1.32s0-.06-.02-.08l-.12-.24zM76.29 112.82l-2.16 3.24c-.06.08-.03.19.05.25.03.02.07.03.1.03.06 0 .12-.03.15-.08l2.16-3.24c.06-.08.03-.19-.05-.25a.19.19 0 0 0-.25.05zM78.64 114.52s-.02-.03-.03-.05l-.12-.12s-.03-.03-.05-.03l-.28-.13-.44-.11-.21-.11-.08-.08-.09-.18v-.15l.09-.18.08-.08.18-.09h.53l.33.11c.09.03.2-.02.23-.11s-.02-.2-.11-.23l-.36-.12H77.65s-.06 0-.08.02l-.24.12s-.03.02-.05.03l-.12.12s-.03.03-.03.05l-.12.24s-.02.05-.02.08v.24s0 .06.02.08l.12.24s.02.03.03.05l.12.12s.03.03.05.03l.28.13.44.11.21.11.08.08.09.18v.16l-.09.18-.08.08-.18.09h-.53l-.33-.11c-.09-.03-.2.02-.23.11s.02.2.11.23l.36.12H78.12s.06 0 .08-.02l.24-.12s.03-.02.05-.03l.12-.12s.03-.03.03-.05l.12-.24s.02-.05.02-.08v-.24s0-.06-.02-.08l-.12-.24zM81.04 114.04s-.02-.03-.03-.05l-.12-.12s-.03-.03-.05-.03l-.24-.12s-.05-.02-.08-.02h-.6s-.06 0-.08.02l-.05.03s-.07-.04-.11-.04c-.1 0-.18.08-.18.18v2.52c0 .1.08.18.18.18s.18-.08.18-.18v-.67s.04.01.06.01h.6s.06 0 .08-.02l.24-.12s.03-.02.05-.03l.12-.12s.02-.03.03-.05l.12-.24s.02-.05.02-.08v-.72s0-.06-.02-.08l-.12-.24zm-.22 1l-.09.18-.08.08-.17.09h-.52l-.1-.05v-1.22l.1-.05h.51l.18.09.08.08.09.18v.63zM82.08 113.7c-.1 0-.18.08-.18.18v1.68c0 .1.08.18.18.18s.18-.08.18-.18v-1.68c0-.1-.08-.18-.18-.18zM82.21 112.91s-.07-.05-.11-.05h-.04s-.07.02-.1.05l-.12.12c-.07.07-.07.18 0 .25l.12.12s.04.03.06.04c.02 0 .04.01.07.01s.05 0 .07-.01c.02 0 .04-.02.06-.04l.12-.12c.07-.07.07-.18 0-.25l-.12-.12zM84 113.7h-.24s-.06 0-.08.02l-.24.12c-.02-.08-.08-.14-.16-.14-.1 0-.18.08-.18.18v1.68c0 .1.08.18.18.18s.18-.08.18-.18v-1.16l.09-.18.08-.08.18-.09h.2c.1 0 .18-.08.18-.18s-.08-.18-.18-.18zM84.84 113.7c-.1 0-.18.08-.18.18v1.68c0 .1.08.18.18.18s.18-.08.18-.18v-1.68c0-.1-.08-.18-.18-.18zM84.97 112.91s-.07-.05-.11-.05h-.04s-.07.02-.09.04l-.12.12c-.07.07-.07.18 0 .25l.12.12c.03.03.07.05.12.05s.08-.02.11-.04l.12-.12c.07-.07.07-.18 0-.25l-.12-.12zM87.13 113.75a.175.175 0 0 0-.25 0l-.65.65v-1.37c0-.1-.08-.18-.18-.18s-.18.08-.18.18v2.52c0 .1.08.18.18.18s.18-.08.18-.18v-.65l.04-.04.6.8s.09.07.14.07c.04 0 .08-.01.11-.04.08-.06.1-.17.04-.25l-.63-.84.61-.61c.07-.07.07-.18 0-.25zM89.73 112.82l-2.16 3.24c-.06.08-.03.19.05.25.03.02.07.03.1.03.06 0 .12-.03.15-.08l2.16-3.24c.06-.08.03-.19-.05-.25a.19.19 0 0 0-.25.05zM92.28 112.86c-.1 0-.18.08-.18.18v1.02h-1.08v-1.02c0-.1-.08-.18-.18-.18s-.18.08-.18.18v2.52c0 .1.08.18.18.18s.18-.08.18-.18v-1.14h1.08v1.14c0 .1.08.18.18.18s.18-.08.18-.18v-2.52c0-.1-.08-.18-.18-.18zM94.96 113.56l-.12-.24s-.02-.03-.03-.05l-.24-.24s-.04-.04-.07-.04l-.36-.12H93.48c-.1 0-.18.08-.18.18v2.52c0 .1.08.18.18.18H94.14l.36-.12s.05-.02.07-.04l.24-.24s.03-.03.03-.05l.13-.28.12-.52v-.4l-.14-.52zm-.32 1.32l-.11.21-.19.19-.29.1h-.39v-2.16h.39l.29.1.19.19.09.17.11.44v.32l-.1.44zM97.48 113.56l-.12-.24s-.02-.03-.03-.05l-.24-.24s-.04-.04-.07-.04l-.36-.12H96c-.1 0-.18.08-.18.18v2.52c0 .1.08.18.18.18H96.66l.36-.12s.05-.02.07-.04l.24-.24s.03-.03.03-.05l.13-.28.12-.52v-.4l-.14-.52zm-.32 1.32l-.11.21-.19.19-.29.1h-.39v-2.16h.39l.29.1.19.19.09.18.12.44v.32l-.1.44zM99.52 115.28l-.2.1h-.4l-.18-.09-.08-.08-.09-.18v-.63l.09-.18.08-.08.18-.09h.39l.2.1c.09.04.2 0 .24-.08.04-.09 0-.2-.08-.24l-.24-.12s-.05-.02-.08-.02h-.48s-.06 0-.08.02l-.24.12s-.03.02-.05.03l-.12.12s-.03.03-.03.05l-.12.24s-.02.05-.02.08v.72s0 .06.02.08l.12.24s.02.03.03.05l.12.12s.03.03.05.03l.24.12s.05.02.08.02h.48s.06 0 .08-.02l.24-.12c.09-.04.12-.15.08-.24-.04-.09-.15-.12-.24-.08zM30.56 49.35l.26-.18.3-.1h.14l.42.1.07.07c.09.09.25.09.34 0 .09-.09.09-.25 0-.34l-.12-.12s-.07-.05-.11-.06l-.54-.13h-.24s-.05 0-.08.01l-.36.12-.06.03-.36.24s-.08.07-.09.12l-.13.38-.13.54v.54l.15.53.12.24s.03.04.04.06l.36.36s.06.05.09.06l.36.12s.05.01.08.01h.3l.48-.13c.07-.02.12-.06.16-.13l.12-.24c.06-.12.01-.26-.11-.32a.237.237 0 0 0-.32.11l-.07.14-.31.08h-.2l-.27-.09-.29-.29-.08-.15-.11-.42v-.42l.11-.46.09-.28zM34.67 50.12l.12-.36s.01-.05.01-.08v-.24s0-.05-.01-.08l-.12-.36s-.03-.07-.06-.09l-.12-.12s-.04-.03-.06-.04l-.24-.12s-.07-.03-.11-.03h-.72s-.07 0-.11.03l-.24.12s-.04.03-.06.05l-.12.12c-.09.09-.09.25 0 .34.09.09.25.09.34 0l.09-.09.15-.08h.61l.15.08.05.05.09.27v.16l-.09.27-1.52 1.64c-.06.07-.08.17-.04.26s.12.14.22.14h1.68c.13 0 .24-.11.24-.24s-.11-.24-.24-.24h-1.13l1.19-1.28s.04-.05.05-.09zM29.64 56.7c.1 0 .18-.08.18-.18s-.08-.18-.18-.18h-.48c-.1 0-.18.08-.18.18v9.24c0 .1.08.18.18.18h.48c.1 0 .18-.08.18-.18s-.08-.18-.18-.18h-.3V56.7h.3zM35.52 56.34h-.36c-.1 0-.18.08-.18.18s.08.18.18.18h.18v8.88h-.18c-.1 0-.18.08-.18.18s.08.18.18.18h.36c.1 0 .18-.08.18-.18v-9.24c0-.1-.08-.18-.18-.18zM44.4 52.32h-.6v-.12c0-.13-.11-.24-.24-.24s-.24.11-.24.24v.12h-.72c-.13 0-.24.11-.24.24s.11.24.24.24h.72v.86l-1.72-.61a.246.246 0 0 0-.31.15c-.04.12.02.26.15.31l2.04.72s.05.01.08.01c.05 0 .1-.02.14-.04.06-.04.1-.12.1-.2v-1.2h.6c.13 0 .24-.11.24-.24s-.11-.24-.24-.24zM44.49 49.81s-.03-.04-.04-.06l-.12-.12s-.04-.03-.06-.04l-.24-.12s-.07-.03-.11-.03h-.72s-.07 0-.11.03l-.24.12s-.04.03-.06.04l-.12.12s-.03.04-.04.06l-.12.24s-.02.04-.02.06l-.69-.61a.245.245 0 0 0-.26-.04.23.23 0 0 0-.14.22v1.68c0 .13.11.24.24.24s.24-.11.24-.24v-1.15l.68.6c.07.06.17.08.26.04a.23.23 0 0 0 .14-.22v-.42l.08-.15.22-.14h.61l.15.08.14.22v.73l-.08.15-.09.09c-.09.09-.09.25 0 .34.05.05.11.07.17.07s.12-.02.17-.07l.12-.12s.03-.04.04-.06l.12-.24s.03-.07.03-.11v-.84s0-.07-.03-.11l-.12-.24zM41.4 48.48c0 .13.11.24.24.24h2.76c.13 0 .24-.11.24-.24s-.11-.24-.24-.24h-1.1l-.16-.17 1.4-1.08c.1-.08.12-.23.04-.34a.248.248 0 0 0-.34-.04l-1.44 1.11-1-1.08c-.09-.1-.24-.1-.34-.01-.1.09-.1.24-.01.34l1.19 1.28h-1.01c-.13 0-.24.11-.24.24z"/><path d="M47.04 40.98h-3.66v-2.1c0-.1-.08-.18-.18-.18s-.18.08-.18.18v2.1h-3.78c-.1 0-.18.08-.18.18v18.48c0 .1.08.18.18.18h3.78v1.98c0 .1.08.18.18.18s.18-.08.18-.18v-1.98h3.66c.1 0 .18-.08.18-.18V41.16c0-.1-.08-.18-.18-.18zm-7.62 18.48V41.34h7.44v18.12h-7.44zM61.68 61.68h-.12v-.72c0-.13-.11-.24-.24-.24s-.24.11-.24.24v.72h-.86l.61-1.72a.25.25 0 0 0-.15-.31c-.13-.05-.26.02-.31.15l-.72 2.04c-.03.07-.01.16.03.22s.12.1.2.1h1.2v.72c0 .13.11.24.24.24s.24-.11.24-.24v-.72h.12c.13 0 .24-.11.24-.24s-.11-.24-.24-.24zM64.31 60.52l-.12-.36s-.03-.07-.06-.09l-.12-.12s-.04-.03-.06-.05l-.24-.12s-.07-.03-.11-.03h-.36s-.07 0-.11.03l-.24.12s-.04.03-.06.04l-.12.12s-.05.06-.06.09l-.12.38-.13.54v.78l.15.53.24.48s.06.08.11.11l.24.12s.07.03.11.03h.36s.07 0 .11-.03l.24-.12s.08-.06.11-.11l.26-.53.13-.54v-.78l-.13-.5zm-.45 1.65l-.2.41-.12.06h-.25l-.12-.06-.18-.36-.11-.42v-.66l.11-.46.1-.31.21-.13h.25l.15.08.05.05.21.71v.66l-.09.43zM67.08 61.68h-.12v-.72c0-.13-.11-.24-.24-.24s-.24.11-.24.24v.72h-.86l.61-1.72c.04-.12-.02-.26-.15-.31s-.26.02-.31.15l-.72 2.04c-.03.07-.01.16.03.22s.12.1.2.1h1.2v.72c0 .13.11.24.24.24s.24-.11.24-.24v-.72h.12c.13 0 .24-.11.24-.24s-.11-.24-.24-.24zM69.92 59.87a.23.23 0 0 0-.2-.11h-1.8c-.13 0-.24.11-.24.24s.11.24.24.24h1.44l-1.06 2.55c-.05.12 0 .26.13.31.03.01.06.02.09.02.09 0 .18-.06.22-.15l1.2-2.88c.03-.07.02-.16-.02-.23z"/><path d="M72.24 53.58h-4.68c-.1 0-.18.08-.18.18 0 .07.05.12.1.15-.08 1.4-1.27 2.55-2.68 2.55s-2.58-1.21-2.58-2.7c0-.1-.08-.18-.18-.18-.02 0-.04.02-.06.02-.02 0-.04-.02-.06-.02h-4.68c-.1 0-.18.08-.18.18v50.76c0 .1.08.18.18.18h15c.1 0 .18-.08.18-.18V53.76c0-.1-.08-.18-.18-.18zm-7.44 3.24c1.6 0 2.94-1.3 3.04-2.88h4.22v50.4H57.42v-50.4h4.46c.09 1.6 1.36 2.88 2.92 2.88zM108.35 77.8s-.03-.07-.06-.09l-.12-.12s-.06-.05-.09-.06l-.36-.12s-.05-.01-.08-.01h-1.08c-.13 0-.24.11-.24.24v2.88c0 .13.11.24.24.24s.24-.11.24-.24v-1.2h.35l.89 1.33c.05.07.12.11.2.11.05 0 .09-.01.13-.04a.24.24 0 0 0 .07-.33l-.72-1.08.36-.12s.07-.03.09-.06l.12-.12s.03-.04.04-.06l.12-.24s.03-.07.03-.11v-.36s0-.05-.01-.08l-.12-.36zm-.35.74l-.08.15-.05.05-.27.09h-.8v-.96h.8l.27.09.13.31v.26zM111.11 79.24l-.12-.36s-.03-.07-.06-.09l-.12-.12s-.04-.03-.06-.04l-.24-.12s-.04-.02-.06-.02l.61-.69c.06-.07.08-.17.04-.26a.23.23 0 0 0-.22-.14h-1.68c-.13 0-.24.11-.24.24s.11.24.24.24h1.14l-.6.68c-.06.07-.08.17-.04.26s.12.14.22.14h.42l.15.08.05.05.09.27v.5l-.18.36-.12.06h-.73l-.12-.06-.08-.17c-.06-.12-.21-.17-.32-.11-.12.06-.17.2-.11.32l.12.24s.06.08.11.11l.24.12s.07.03.11.03h.84s.07 0 .11-.03l.24-.12s.08-.06.11-.11l.24-.48s.03-.07.03-.11v-.6s0-.05-.01-.08zM94.31 63.4s-.03-.07-.06-.09l-.12-.12s-.06-.05-.09-.06l-.36-.12s-.05-.01-.08-.01h-1.08c-.13 0-.24.11-.24.24v2.88c0 .13.11.24.24.24s.24-.11.24-.24v-1.2h.35l.89 1.33c.05.07.12.11.2.11.05 0 .09-.01.13-.04a.24.24 0 0 0 .07-.33l-.72-1.08.36-.12s.07-.03.09-.06l.12-.12s.03-.04.04-.06l.12-.24s.03-.07.03-.11v-.36s0-.05-.01-.08l-.12-.36zm-.35.74l-.08.15-.05.05-.27.09h-.8v-.96h.8l.27.09.13.31v.26zM96.95 64.52l.12-.36s.01-.05.01-.08v-.24s0-.05-.01-.08l-.12-.36s-.03-.07-.06-.09l-.12-.12s-.04-.03-.06-.04l-.24-.12s-.07-.03-.11-.03h-.72s-.07 0-.11.03l-.24.12s-.04.03-.06.04l-.12.12c-.09.09-.09.25 0 .34s.25.09.34 0l.09-.09.15-.08h.61l.15.08.05.05.09.27v.16l-.09.27-1.53 1.64c-.07.07-.08.17-.04.26s.12.14.22.14h1.68c.13 0 .24-.11.24-.24s-.11-.24-.24-.24H95.7l1.19-1.28s.04-.05.05-.09zM90.24 62.58h-3.66V60.6c0-.1-.08-.18-.18-.18s-.18.08-.18.18v1.98h-3.78c-.1 0-.18.08-.18.18v18.48c0 .1.08.18.18.18h3.78v1.98c0 .1.08.18.18.18s.18-.08.18-.18v-1.98h3.66c.1 0 .18-.08.18-.18V62.76c0-.1-.08-.18-.18-.18zm-7.62 18.48V62.94h7.44v18.12h-7.44zM102 88.08c-.13 0-.24.11-.24.24v.6h-2.52c-.11 0-.2.07-.23.17s0 .21.1.27l.32.21.24.35.24.24s.11.07.17.07.12-.02.17-.07c.09-.09.09-.25 0-.34l-.21-.21-.15-.23h1.87v.6c0 .13.11.24.24.24s.24-.11.24-.24V88.3c0-.13-.11-.24-.24-.24zM102.09 85.93s-.03-.04-.04-.06l-.12-.12s-.04-.03-.06-.05l-.24-.12s-.04-.02-.06-.02l-.65-.12h-.65l-.6.12c-.02 0-.04.01-.06.02l-.24.12s-.04.03-.06.04l-.12.12s-.03.04-.04.06l-.12.24s-.03.07-.03.11v.36s0 .07.03.11l.12.24s.03.04.04.06l.12.12s.04.03.06.04l.24.12s.04.02.06.02l.65.12h.65l.6-.12c.02 0 .04-.01.06-.02l.24-.12s.04-.03.06-.05l.12-.12s.03-.04.04-.06l.12-.24s.03-.07.03-.11v-.36s0-.07-.03-.11l-.12-.24zm-.33.65l-.08.15-.24.15-.52.11h-.55l-.57-.11-.18-.09-.14-.22v-.25l.08-.15.24-.15.52-.11h.55l.57.11.18.09.14.22v.25zM99 84.48c0 .13.11.24.24.24H102c.13 0 .24-.11.24-.24s-.11-.24-.24-.24h-1.1l-.16-.17 1.4-1.08c.1-.08.12-.23.04-.34-.08-.11-.23-.12-.34-.04l-1.44 1.11-1-1.08c-.09-.1-.24-.1-.34-.01-.1.09-.1.24-.01.34l1.19 1.28h-1.01c-.13 0-.24.11-.24.24z"/><path d="M104.64 76.98h-3.66V75c0-.1-.08-.18-.18-.18s-.18.08-.18.18v1.98h-3.78c-.1 0-.18.08-.18.18v18.48c0 .1.08.18.18.18h3.78v1.98c0 .1.08.18.18.18s.18-.08.18-.18v-1.98h3.66c.1 0 .18-.08.18-.18V77.16c0-.1-.08-.18-.18-.18zm-7.62 18.48V77.34h7.44v18.12h-7.44zM87.6 73.68c-.13 0-.24.11-.24.24v1.1l-1.15-1.15s-.06-.05-.09-.06l-.36-.12s-.05-.01-.08-.01h-.36s-.07 0-.11.03l-.24.12s-.04.03-.06.04l-.12.12s-.03.04-.04.06l-.12.24s-.03.07-.03.11v.72s0 .07.03.11l.12.24s.03.04.04.06l.12.12c.09.09.25.09.34 0s.09-.25 0-.34l-.09-.09-.08-.16v-.61l.08-.16.22-.14h.26l.27.09 1.52 1.52s.11.07.17.07c.03 0 .06 0 .09-.02.09-.04.15-.12.15-.22v-1.68c0-.13-.11-.24-.24-.24zM87.6 70.92c-.13 0-.24.11-.24.24v1.19l-1.14-1.23s-.06-.05-.1-.06l-.36-.12s-.05-.01-.08-.01h-.36s-.07 0-.11.03l-.24.12s-.08.06-.11.11l-.24.48s-.03.07-.03.11v.6s0 .05.01.08l.12.36s.03.07.06.09l.12.12c.09.09.25.09.34 0s.09-.25 0-.34l-.08-.08-.09-.27v-.5l.18-.36.12-.06h.26l.26.09 1.52 1.63s.11.08.18.08c.03 0 .06 0 .09-.02.09-.04.15-.12.15-.22v-1.8c0-.13-.11-.24-.24-.24zM87.82 69.01l-.12-.24s-.03-.04-.04-.06l-.12-.12s-.04-.03-.06-.04l-.24-.12s-.04-.02-.06-.02l-.65-.12h-.65l-.6.12c-.02 0-.04.01-.06.02l-.24.12s-.04.03-.06.04l-.12.12s-.03.04-.04.06l-.12.24s-.03.07-.03.11v.36s0 .07.03.11l.12.24s.03.04.04.06l.12.12s.04.03.06.04l.24.12s.04.02.06.02l.65.12h.65l.6-.12c.02 0 .04-.01.06-.02l.24-.12s.04-.03.06-.04l.12-.12s.03-.04.04-.06l.12-.24s.03-.07.03-.11v-.36s0-.07-.03-.11zm-.46.41l-.08.15-.24.15-.52.11h-.55l-.57-.11-.18-.09-.07-.06-.08-.15v-.25l.08-.16.24-.15.52-.11h.55l.57.11.18.09.14.22v.25zM37.71 81.48v.72l.12.24.24.12v-1.44l-.24.12-.12.24zM33.15 80.52l-.24-.24-.36-.12h-.36v2.4h.36l.36-.12.24-.12.12-.24.12-.48v-.36l-.12-.48-.12-.24zM35.79 80.28l-.36-.12h-.48v2.4h.48l.36-.12.12-.12.12-.24.12-.48v-.36l-.12-.48-.24-.48z"/><path d="M39.63 79.08H28.11c-.07 0-.12.05-.12.12v4.68c0 .07.05.12.12.12h11.52c.07 0 .12-.05.12-.12V79.2c0-.07-.05-.12-.12-.12zm-9.24 2.04V79.8h.36v.12h.12v2.88h-.12v.12l-.12.12h-.12v-.12h-.12v-1.44h-1.2v1.44h-.12v.12h-.12l-.12-.12v-.12h-.12v-2.88h.12v-.12h.36v1.32h1.2zm3.24-.6l.12.6v.48l-.12.6-.12.24v.12l-.36.24-.48.24h-.72l-.24-.24v-2.88l.12-.12h.84l.48.12.36.24v.12l.12.24zm2.88 0l.12.6v.48l-.12.6-.24.24v.12l-.24.24h-.12l-.36.24h-.84v-.12h-.12V79.8h.96l.36.12h.12l.24.24v.12l.24.24zm2.04-.12v.24h.12v.12l.24.12h.12v.24l-.12.12h-.12l-.24-.12v1.44l.24-.12h.12l.12.12v.24h-.12l-.24.24h-.12v.24h-.12v.12h-.24l-.12-.12v-.24h-.12l-.24-.24h-.12l-.12-.12v-.12l-.12-.24h-.12v-.96h.12l.12-.24V81l.12-.12h.12l.24-.12v-.12h.12v-.24l.12-.12h.24v.12h.12zM5.04 100.2l.12-.24v-.48h-2.4v.48l.24.48.24.12.48.12h.36l.48-.12.24-.12.24-.24z"/><path d="M6.84 90.6H1.8c-.07 0-.12.05-.12.12v12.96c0 .07.05.12.12.12h5.04c.07 0 .12-.05.12-.12V90.72c0-.07-.05-.12-.12-.12zm-3.42 10.44l-.3-.12-.36-.12-.36-.36-.12-.36v-.96h3.24v.96l-.12.36v.12l-.36.24-.24.12h-.12l-.24.12H3.42zm-1.14-4.56v-.24l.12-.12h3.12v.36H5.4l-2.16 1.2H5.4v.12h.12v.24l-.12.12h-3v-.12h-.12v-.24h.12l2.16-1.32H2.28zm3.12-2.76v.12l.12.36v.6l-.12.24-.12.12h-.24v-.24l.12-.24v-.36l-.12-.36-.48-.24-.48-.12h-.36l-.48.12-.24.12-.12.12-.12.36v.24l.12.24v.12h.6v-.48l.12-.12h.24v.12l.12.12v.6h-.12v.12h-1.2l-.24-.24-.12-.36v-.48l.12-.36v-.12h.12l.24-.24v-.12l.36-.12.6-.12h.48l.48.12h.12l.24.12v.12l.36.24zM87.11 101.86c-.52 0-1.01-.12-1.47-.35-.46-.23-.86-.59-1.19-1.05-.32-.44-.55-.99-.68-1.62l-.61.11.03 2.3-.1-.09c-1.04-1.04-1.56-2.3-1.56-3.75s.52-2.71 1.55-3.74c1.03-1.03 2.29-1.55 3.74-1.55.68 0 1.32.11 1.9.34l.55.21-.58-.09c-.22-.04-.45-.05-.69-.05-.65 0-1.28.13-1.88.38-.59.25-1.06.57-1.39.94-.34.38-.56.81-.64 1.24-.1.55.01 1.05.34 1.48.33.44 1 .81 1.93 1.09l1.72.5c.79.24 1.31.49 1.59.77.27.28.36.62.28 1.07-.09.49-.37.89-.87 1.23-.6.41-1.26.62-1.96.62zm-3.24-3.16v.06c.14.64.36 1.19.68 1.63.32.44.7.78 1.14 1.01.44.23.92.34 1.42.34.68 0 1.3-.2 1.89-.6.47-.33.74-.7.82-1.16.07-.41 0-.71-.25-.96-.26-.26-.78-.51-1.54-.74l-1.72-.5c-.96-.28-1.65-.68-1.99-1.13-.34-.46-.46-.99-.36-1.57.08-.45.31-.9.67-1.3.34-.39.83-.71 1.44-.97.65-.28 1.35-.41 2.06-.39a5.19 5.19 0 0 0-1.32-.16c-1.42 0-2.65.51-3.65 1.52-1.01 1.01-1.52 2.24-1.52 3.65s.48 2.56 1.42 3.55l-.02-2.12.83-.15zM86.81 102.71c-1.06 0-2.02-.28-2.85-.82l-.05-.03.23-.43.06.05c.44.4.88.69 1.29.85.4.15.89.23 1.47.23.39 0 .78-.04 1.13-.11l.03.12c-.42.1-.86.16-1.32.16zm-2.73-.89c.39.25.8.43 1.23.56-.37-.16-.74-.42-1.13-.76l-.11.2z"/><path d="M90.84 100.86l-.1-.08c.24-.34.4-.71.47-1.09.06-.35.05-.67-.03-.96-.08-.29-.23-.55-.43-.75-.2-.2-.51-.4-.9-.58-.4-.18-.72-.31-.93-.38l-1.79-.54c-.57-.17-.99-.34-1.23-.5-.24-.16-.4-.33-.5-.55-.1-.21-.13-.44-.09-.67.05-.26.17-.49.38-.72.22-.24.51-.44.88-.59.37-.15.77-.22 1.2-.22.73 0 1.33.2 1.84.6.61.48 1.06 1.15 1.34 1.99l.62-.17-.05-.7.14.32c.29.65.44 1.38.44 2.15 0 1.31-.43 2.47-1.27 3.44zm-3.06-7.52c-.41 0-.8.07-1.16.22-.35.14-.63.33-.84.55-.2.22-.3.42-.35.66-.04.21-.01.41.08.6.09.2.23.35.45.5.23.15.63.32 1.2.49l1.79.54c.22.07.54.19.95.38.41.19.73.39.94.6.22.22.38.5.47.81.09.3.1.65.03 1.02-.03.15-.07.3-.12.44.51-.81.77-1.72.77-2.73 0-.61-.1-1.19-.28-1.73v.05l-.83.22-.02-.06c-.27-.84-.71-1.51-1.32-1.99-.48-.39-1.06-.58-1.76-.58z"/></svg>