<svg xmlns="http://www.w3.org/2000/svg" viewBox="0 0 118.92 118.92"><path d="M11.1 1.5l-.24.24v.12l.12.24.12.12.6.48.48.6.36.72.36.6.24.72.12.72.12.84v.72l-.12.84-.12.72-.24.72-.36.6-.36.72-.36.48-.12.12-1.8 1.44-.72.24-.72.36-.72.12-.84.12h-.72l-1.44-.24-.72-.36-.72-.24-.72-.48-.48-.36-.24-.12h-.12l-.24.12v93.84l.12.24.12.12h.12l.24-.12.48-.36.72-.48.72-.24.72-.36.48-.12h.24l.72-.12h.72l.84.12.72.12.72.36.72.24 1.8 1.44.48.6.36.72.36.6.24.72.12.72.12.84v.72l-.12.84-.12.72-.24.72-.36.6-.36.72-.24.24-.24.36-.6.48-.24.24v.24l.12.12.24.12H88.5l.12-.24v-.36h-.12l-.6-.6-.48-.6-.36-.72-.36-.6-.48-1.44v-2.4l.48-1.44.36-.6.36-.72.48-.6.48-.48.6-.48.72-.48.72-.24.72-.36.48-.12h.24l.72-.12h.72l.84.12.72.12.72.36.72.24 1.8 1.44.48.6.36.72.36.6.24.72.12.72.12.84v.72l-.12.84-.12.72-.24.72-.36.6-.36.72-.24.24-.24.36-.6.48-.24.24v.24l.12.12.24.12h17.88l1.92-1.92v-9.96h-5.52v5.28l-.12.36-.24.36-.36.24-.36.12h-5.4l-.48-.12-.24-.24-.48-.72v-.36l-.24-.12v-.12h-.12l-.48-.12-.36-.24L74.7 81.54h-6.96v.12l-.48.36-.36.36h-.12l-.72.36-.36.12h-.24l-.24.12h-.6l-.6-.12-.6-.24-.72-.36-.6-.6-.24-.12h-.84l-.36-.12-.48-.12-.36-.24-3.84-3.96h-.12l-.24-.36-.12-.36-.12-.48V53.82l.12-.48.12-.24v-.48h-.6l-2.16 2.28-.12.12V97.5l-.12.36-.12.48-.24.36-3.96 3.96-.36.24-.36.12-.48.12h-.96v.12l-.48.36-.36.36h-.12l-.24.24h-.24l-.24.12-.36.12-.48.12h-.6l-.6-.12-.6-.24-.72-.36-.6-.6-.24-.12H20.94v.12l-.48.36-.36.36h-.12l-.24.24h-.24l-.24.12-.36.12h-.24l-.24.12h-.6l-.6-.12-.6-.24-.72-.36-.96-.96v-.12l-.24-.48-.24-.6v-1.68l.24-.6.12-.12.12-.36.36-.48.36-.36.48-.36.12-.12.36-.12.6-.24.48-.12h.72l.48.12.6.24.48.24.96.72.12.12h19.32l.12-.12.36-.48.48-.24.12-.12.36-.24.6-.12.48-.12h.72l.48.12.6.12.48.36.48.24.36.36.24-.12h.12l1.68-1.8.12-.24V78.9h-1.2v.6l-.24 1.2-.24.48-.36.48-.48.36-.36.36h-.12l-.24.12-.12.12v.48h.12l.24.24.48.24.48.48.36.48.24.48.12.6.12.48v.6l-.24 1.2-.24.48-.36.48-.48.36-.36.36h-.12l-.72.36-.36.12-.48.12h-.6l-.6-.12-.6-.24-.48-.24-.24-.24-.24-.12-.36-.36-.24-.12h-4.92v.12l-.48.36-.36.36h-.12l-.72.36-.36.12h-.24l-.24.12h-.6l-.6-.12-.6-.24-.48-.24-.36-.24-.48-.48-.24-.12h-.84l-.36-.12-.48-.12-.36-.24-3.84-3.96h-.12l-.24-.36-.12-.36-.12-.48V51.3h-.12l-.24-.24h-4.08l-.36-.12-.36-.24-.24-.36-.12-.36v-6.36l.12-.12v-.24l.24-.36.36-.24.36-.12h6.24l.48.12.24.24.48.72v4.32l1.08 1.08.24.36.12.36.12.48v31.56l.12.24 1.92 1.92h.24l.24-.24.48-.36.48-.24.6-.24.48-.12h.72l.48.12.6.24.48.24.96.72.12.12h4.92l.12-.12.36-.48.48-.24.24-.24.24-.12v-.12l-.12-.24-.12-.12-.24-.12-.48-.36-.6-.6-.36-.72-.24-.6v-1.68l.24-.6.12-.36.12-.12v-.12l.36-.36.36-.48.48-.24.12-.12.36-.24.6-.12.48-.12h.72l.48.12.6.12.48.36.48.24.48.48.36.48.24.48.12.6.12.48h1.2V53.82l.12-.48.12-.36.36-.36 2.88-3 .12-.12v-.24l-.12-.12-.24-.12h-.12l-.24.12h-5.28l-.24.24v5.16l.12.24.48.48.36.48.24.48.12.6.12.48v.6l-.24 1.2-.24.48-.36.48-.48.36-.36.36h-.12l-.24.12-.12.12v.48h.12l.24.24.48.24.48.48.36.48.24.48.12.6.12.48v.6l-.24 1.2-.24.48-.36.48-.48.36-.36.24-.12.12-.72.36-.36.12-.48.12h-.6l-.6-.12-.6-.24-.72-.36-.6-.6-.12-.24-.24-.24-.24-.48-.24-.6v-1.68l.12-.12v-.12l.12-.36.12-.12.12-.36.12-.12.24-.36.36-.48.48-.24.24-.24.24-.12v-.12l-.12-.24-.12-.12-.24-.12-.36-.24-.48-.48-.24-.36-.12-.12-.24-.48-.24-.6v-1.08h-3.48v.48l-.24 1.2-.24.48-.36.48-.48.36-.36.36h-.12l-.24.24h-.24l-.24.12-.36.12h-.24l-.24.12h-.6l-.6-.12-.6-.24-.48-.24-.36-.24-.72-.72-.36-.72-.24-.6v-1.68l.24-.6.12-.12.12-.36v-.12l.72-.72.12-.24V11.7h-.12l-.48-.48h-.96l-1.2-.24-.6-.36-.96-.72-.36-.6-.24-.48-.24-.6-.12-.6V6.9l.12-.6.12-.48.12-.12v-.12l.48-.72.12-.24.96-.72.12-.12.48-.24.6-.12.36-.12h.96l.48.12.6.12.6.36.48.36.36.36.48.6.24.48.24.6v1.68l1.44 1.44.24.36.12.36.12.48v43.92l.12.24v.12l.48.36.36.48.24.48.24 1.2h3.48v-.6l.24-.6.24-.48.24-.36.12-.12.36-.48.12-.12v-8.04l.12-.48.12-.36.36-.36.24-.36.36-.24.48-.12.36-.12h6.96v-.12l1.68-1.56v-.48l-.36-.36-.36-.48-.12-.24-.12-.12-.24-.12-.24.24-.12.24-.36.48-.48.36-.24.24-.96.48-.36.12h-.24l-.24.12h-.6l-.6-.12-.6-.24-.48-.24-.36-.24-.72-.72-.36-.72-.24-.6v-1.68l.12-.24.12-.36.36-.72.6-.6.48-.36.48-.24.6-.24.48-.12h.72l.48.12.6.24.48.24.96.72.36.48.12.24.24.24.24-.12.12-.12.24-.48.6-.6.12-.24v-.84l.12-.48.12-.24v-.12l.36-.36.24-.36 3.6-3.6.36-.24.48-.12.36-.12h7.68l.48.12.36.12.36.24 3.96 3.96.24.36.12.36.12.48v7.68l-.12.48-.12.36-.24.36-10.32 10.32v19.56l.12.24 1.92 1.92.24-.12h.12l.12-.24.48-.24.24-.24.24-.12v-.12l-.12-.24-.12-.12-.48-.24-.6-.6-.24-.36-.12-.12-.24-.48-.24-.6v-1.68l.24-.6.12-.12.12-.36.24-.36.12-.12.36-.48.48-.24.24-.24.24-.12v-.12l-.12-.24-.12-.12-.48-.24-.6-.6-.12-.24-.24-.24-.24-.48-.24-.6v-1.68l.12-.12v-.12l.12-.36.12-.12.12-.36.12-.12.24-.36.36-.48h.12l.24-.24.12-.24-.12-.24h-.12l-.72-.36-.36-.36-.24-.48-.12-.48v-3.96l.12-.48.24-.36.36-.36.96-.48h3.96l.48.24.36.24.36.36.24.36h.12l.12.24h15l.48-.48.48-.36.48-.24.6-.24.48-.12h.72l.48.12.6.24.48.24.96.72.36.48.24.48.24 1.2v.48l-.24 1.2-.24.48-.36.48-.96.72-.24.24-.12.24.36.36.96.72v.12l.24.12h14.88v-.12l.24-.24.48-.36h.12l.36-.24h.24l.12-.12.12-.24-.12-.12-.12-.24h-.24l-.48-.24-.48-.36-.36-.36h-7.32l-.36-.12-.48-.12-.36-.24-6.72-6.72h-6.48l-.36-.12-.48-.12-.36-.24-7.44-7.56h-.12l-.24-.36v-.24h-.12v-.12l-.12-.48v-4.56l-.48-.48-.24-.36-.12-.12-.24-.48-.24-.6v-1.68l.12-.48.12-.12.24-.48.72-.96.48-.24.12-.12.36-.24.6-.12.48-.12h.72l.48.12.6.12.48.36.48.24.48.48.36.48.24.48.12.6.12.48v.6l-.24 1.2-.24.48-.36.48-.48.36-.12.24v3.12l.12.24 5.64 5.64.24.12h6.36l.48.12h.12l.24.12.36.24 6.6 6.6.24.12h6.12v-.12l.24-.24.48-.36h.12l.36-.24.48-.12h.36l.24-.12h.72l.36.12.48.12.48.24.24.24.24.12.36.36.12.24.24.24.24.48.12.48.12.6v.84l-.12.24-.12.48-.24.48-.36.48-.36.36-.48.36-.36.12-.12.12h-.12l-.24.12v.36l.12.24h.24l.48.24.12.12.36.24.36.36.12.24.24.24.24.48.12.48.12.6v.48l-.12.6-.12.48-.24.48-.36.48-.36.36-.48.36-.36.12-.12.12h-.12l-.24.12v.36l.12.24h.24l.72.36.6.6.12.24.24.24.24.48.12.48.12.6v.84l-.12.24-.12.48-.24.48-.36.48-.36.36-.48.36-.36.12-.12.12h-.12l-.36.12-.48.12h-.6l-.6-.12-.48-.12-.48-.24-.48-.36-.36-.36-.72-1.44-.12-.6v-.48l.12-.6.72-1.44.36-.36.48-.36.48-.24h.24l.12-.12.12-.24-.12-.12-.12-.24h-.24l-.48-.24-.48-.36-.36-.36H89.22v.12l-.36.24-.36.36h-.12l-.24.24-.24.12h-.24l-.36.12h-.24l-.24.12h-.84l-5.4 5.4-.36.24-.72.24H67.74v.12l-.48.36-.36.36h-.12l-.24.12-.12.12v.48h.12l.24.24.48.24.6.6h8.04l.48.12.36.12.36.24 27.12 27.12.24.12h.12l.36-.36.48-.12h5.4l.36.12.36.24.24.36.12.36v.24h5.52V86.1h-5.52v.72l-.12.48-.12.6-.24.6-.36.48-.96.72-.6.36-.48.12-.6.12h-.6l-1.2-.24-.48-.36-.24-.12-.36-.24-.36-.36-.36-.48-.48-1.2-.12-.48v-.72l.12-.48.48-1.2.36-.48.36-.36.6-.36.48-.36.6-.12.48-.12h.72l.6.12.48.12.6.36.96.72.36.48.24.6.12.6.12.48h5.52V7.74h-5.52v5.28l-.12.36-.24.36-.36.24-.36.12-.12.12-.12.24v.12l.48.48.36.48.24.48.12.6.12.36v.84l-.24 1.2-.24.48-.36.48-.48.48h-.12l-.12.24v11.16l.12.24.12.12h.24l.36.12.36.24.24.36.12.36v5.52l-.12.36-.24.36-.36.24-.36.12-.24.24v.24l.12.12.36.24.36.48.24.6.12.6.12.48v1.2h-.12l-.12.6-.24.6-.36.48-.96.72-.6.36-.48.12-.6.12h-.6l-1.2-.24-.48-.36h-.12l-.48-.36-.6-.6H86.22l-.36-.12-.48-.12-.36-.24-3.84-3.96-.36-.36-.12-.36-.12-.48v-6.6h-.12l-5.76-5.76H61.02l-.36-.12-.48-.12-.36-.24-5.28-5.28h-.72l-.6-.12-.6-.24-.48-.24-.36-.24-.84-.84h-.36l-.12.24v.12l-.12.12v.12l-.6.6-.36.24-.48.12-.36.12h-3.36l-.24-.12-.48-.12-.48-.24-.36-.36-.24-.36-.12-.48v-4.2l.12-.36.24-.36.36-.36.48-.24.12-.12v-4.32l-.48-.48-.24-.36-.12-.12-.24-.48-.24-.6V6.42l.24-.6.12-.12.12-.36.72-.96.48-.24.12-.12.36-.24.6-.12.48-.12h.72l.48.12.6.12.48.36.48.24.48.48.36.48.24.48.12.6.12.48v.72l-.12.48-.12.6-.24.36v.12l-.36.48-.48.36-.12.24v3.96l.12.24.24.24.24.12.36.36.24.36.24.48h.36l.72-.72.48-.36.48-.24.6-.24.48-.12h.72l.48.12.6.24.48.24.96.72.36.48.12.24.24.24.24-.12.12-.12.12-.24v-.12l.72-.72.48-.36.48-.24.6-.24.48-.12h.72l.48.12.6.24.48.24.96.72.36.48.24.48.24 1.2v.48l-.24 1.2-.24.36v.12l-.36.48-.48.36-.36.36h-.12l-.24.24h-.24l-.6.24h-.36l-.12.12-.12.24v.24l.6.6.24.12H75.9l.48.12h.12l.24.12.36.24 7.56 7.56.24.36.12.36.12.48v6.36l.12.24 2.04 2.04.24.12h17.52v-.12l.12-.12.36-.24v-.48l-.12-.12-.48-.12-.24-.24-.48-.72V33.3h.12l.12-.36.24-.36.24-.24.48-.12h.24v-.12h.12-6v.72l-.12.84-.12.72-.24.72-.36.6v.12l-.36.6-.36.36-.12.24-1.8 1.44-1.08.36-.36.24-.72.12-.84.12h-.72l-1.44-.24-.72-.36-.72-.24-.72-.48-.6-.48-.48-.48-.48-.6-.36-.72-.36-.6-.48-1.44v-2.4l.48-1.44.36-.6.36-.72.48-.6.48-.48.6-.48.72-.48.72-.24.72-.36.48-.12h.24l.72-.12h.72l.84.12.72.12.72.36.72.24 1.8 1.44.48.6.36.72.36.6.24.72.12.72.12.84h6V20.58l-.12-.12h-.12l-.36-.48h-.12l-.24-.24h-1.08l-.72.72-.48.36-.6.24-.48.24h-1.8l-.6-.24-.48-.24-.12-.12-.48-.24-.36-.48h-.12l-.24-.24h-7.68l-.24.24-.48.36-.36.36h-.12l-.24.24-.24.12h-.24l-.36.12h-.24l-.24.12h-.6l-1.2-.24-.48-.36-.24-.12-.84-.84-.36-.72-.24-.6v-1.68l.12-.12.12-.48.12-.36.24-.24.24-.36.36-.36.48-.36.12-.12.24-.12v-.24l-.36-.36-.36-.24-.48-.48-.24-.12h-4.68l-.96-.24-.36-.24-1.2-1.32h-.84l-.6-.12-.6-.24-.48-.24-.24-.24-.24-.12-.36-.36-.24-.36-.12-.12-.24-.48-.24-.6V6.42l.24-.6.12-.12.12-.36.72-.96.48-.24.12-.12.36-.24.6-.12.48-.12h.72l.48.12.6.12.48.36.48.24.48.48.36.48.24.48.12.6.12.48v.84l.36.36.24.12h3.6l.48-.48.48-.36.12-.12.36-.12.6-.24.48-.12h.72l.48.12.6.24.48.24.48.36.24.24.24.12h6.96l.24-.12.12-.12v-.24l.48-.72.24-.24.48-.12h5.4l.36.12.36.24v.12l.24.12h.12l.24-.12V6.9h.12l.24-.24.48-.12h5.4l.36.12.36.24.24.36.12.36v.12h5.52V3.42l-1.8-1.8-.24-.12H11.1z"/><path fill="none" stroke="#000" stroke-linecap="round" stroke-linejoin="round" stroke-width="1.68" d="M86.58 64.86l-.12-.12M64.86 57.66"/><path d="M48.42 15.78h-.72V9.5a2.4 2.4 0 0 0 1.56-2.24c0-1.32-1.08-2.28-2.4-2.28s-2.28.96-2.28 2.28c0 1.02.57 1.89 1.44 2.23v6.29h-.72c-.4 0-.72.32-.72.72v3.12c0 .4.32.72.72.72h3.12c.4 0 .72-.32.72-.72V16.5c0-.4-.32-.72-.72-.72zm-.72 3.12M45.66 93.66c0 1.32-1.08 2.4-2.4 2.4s-2.28-1.08-2.28-2.4.96-2.28 2.28-2.28 2.4.96 2.4 2.28zM45.66 79.26c0 1.32-1.08 2.4-2.4 2.4s-2.28-1.08-2.28-2.4.96-2.28 2.28-2.28 2.4.96 2.4 2.28zM45.66 64.86c0 1.32-1.08 2.4-2.4 2.4s-2.28-1.08-2.28-2.4.96-2.28 2.28-2.28 2.4.96 2.4 2.28z"/><path d="M43.26 84.18c-1.02 0-1.82.57-2.13 1.44H34.7c-.35-.87-1.22-1.44-2.23-1.44s-1.82.57-2.13 1.44h-1.12l-3.11-3.11V50.46c0-.11-.02-.22-.06-.32-.04-.1-.1-.2-.18-.27l-1.31-1.31v-4.57h-5.64v5.64h4.33l1.19 1.19v32.05c0 .11.02.22.06.32.04.09.1.17.16.25 0 0 0 .02.02.03l3.6 3.6h.01c.08.07.16.13.26.17.1.04.21.06.32.06h1.46c.31.91 1.11 1.56 2.14 1.56s1.9-.65 2.24-1.56h6.43c.31.91 1.11 1.56 2.14 1.56 1.32 0 2.4-1.08 2.4-2.4s-1.08-2.28-2.4-2.28z"/><path d="M33.3 55.52V10.86c0-.11-.02-.22-.06-.32-.04-.09-.1-.17-.16-.25 0 0 0-.02-.02-.03l-1.84-1.84c.18-.35.29-.75.29-1.16 0-1.44-1.2-2.52-2.64-2.52s-2.52 1.08-2.52 2.52 1.08 2.64 2.52 2.64c.42 0 .81-.11 1.16-.29l1.6 1.6v44.32c-.87.31-1.44 1.11-1.44 2.13 0 1.32.96 2.4 2.28 2.4s2.4-1.08 2.4-2.4c0-1.02-.65-1.82-1.56-2.14zM49.26 39.66c0 1.32-1.08 2.4-2.4 2.4s-2.28-1.08-2.28-2.4.96-2.28 2.28-2.28 2.4.96 2.4 2.28zM63.66 39.66c0-1.32-1.08-2.28-2.4-2.28s-2.28.96-2.28 2.28c0 1.02.57 1.89 1.44 2.23v1.02L49.87 53.46a.8.8 0 0 0-.24.59V96.9l-3.11 3.11H45.5c-.35-.87-1.22-1.44-2.23-1.44s-1.82.57-2.13 1.44H20.3c-.35-.87-1.22-1.44-2.23-1.44-1.32 0-2.28.96-2.28 2.28s.96 2.4 2.28 2.4a2.4 2.4 0 0 0 2.24-1.56h20.83c.31.91 1.11 1.56 2.14 1.56s1.9-.65 2.24-1.56h1.36c.11 0 .22-.02.32-.06.1-.04.2-.1.27-.18l3.6-3.6a.8.8 0 0 0 .24-.59V54.41l10.55-10.55a.8.8 0 0 0 .24-.59v-1.36a2.4 2.4 0 0 0 1.56-2.24zM110.58 86.46c0 1.32-1.2 2.52-2.52 2.52s-2.4-1.2-2.4-2.52 1.08-2.4 2.4-2.4 2.52 1.08 2.52 2.4z"/><path d="M105.66 105.66v1.56h-.85L76.26 78.67a.8.8 0 0 0-.59-.24H67.1c-.35-.87-1.22-1.44-2.23-1.44s-1.82.57-2.13 1.44h-1.12l-3.11-3.11V54.41l10.55-10.55a.8.8 0 0 0 .24-.59v-7.2c0-.11-.02-.22-.06-.32-.04-.1-.1-.19-.17-.26v-.01l-3.6-3.6s-.02 0-.02-.02a.669.669 0 0 0-.25-.16c-.1-.04-.2-.06-.3-.06H57.66c-.1 0-.2.02-.3.06-.09.04-.18.1-.25.16 0 0-.02 0-.02.02l-3.6 3.6v.01c-.07.08-.13.16-.17.26-.04.1-.06.21-.06.32v1.47c-.87.31-1.44 1.11-1.44 2.13s.57 1.89 1.44 2.23v1.38l-2.75 2.75H43.3c-.46 0-.84.38-.84.84v8.67c-.87.31-1.44 1.11-1.44 2.13 0 1.32.96 2.4 2.28 2.4s2.4-1.08 2.4-2.4c0-1.02-.65-1.82-1.56-2.14v-7.82h6.72c.11 0 .22-.02.32-.06.1-.04.19-.1.26-.17h.01l3.24-3.24s0-.02.02-.03c.07-.07.13-.15.16-.25.04-.1.06-.21.06-.32v-1.72c.91-.34 1.56-1.22 1.56-2.24s-.65-1.82-1.56-2.14v-1.12l3.11-3.11h6.5l3.11 3.11v6.5L57.1 53.47a.8.8 0 0 0-.24.59v21.6c0 .11.02.22.06.32.04.1.1.2.18.27l3.6 3.6a.8.8 0 0 0 .59.24h1.46c.31.91 1.11 1.56 2.14 1.56s1.9-.65 2.24-1.56h8.21l28.55 28.55a.8.8 0 0 0 .59.24h1.2v1.56h4.8v-4.8h-4.8zM109.14 72.06c0 1.2-.96 2.16-2.16 2.16s-2.04-.96-2.04-2.16.84-2.04 2.04-2.04 2.16.84 2.16 2.04zM106.98 55.62c-.89 0-1.59.47-1.88 1.2h-7.49l-6.95-6.95a.8.8 0 0 0-.59-.24h-6.85l-6.71-6.71v-4.61a2.4 2.4 0 0 0 1.56-2.24c0-1.32-1.08-2.28-2.4-2.28s-2.28.96-2.28 2.28c0 1.02.57 1.89 1.44 2.23v4.97a.815.815 0 0 0 .24.58l7.2 7.2a.8.8 0 0 0 .59.24h6.85l6.95 6.95a.8.8 0 0 0 .59.24h7.83c.29.78.99 1.32 1.89 1.32 1.2 0 2.16-.96 2.16-2.16s-.96-2.04-2.16-2.04z"/><path d="M75.66 62.58c-1.02 0-1.82.57-2.13 1.44h-6.44c-.35-.87-1.22-1.44-2.23-1.44-1.32 0-2.28.96-2.28 2.28s.96 2.4 2.28 2.4a2.4 2.4 0 0 0 2.24-1.56h6.43c.31.91 1.11 1.56 2.14 1.56 1.32 0 2.4-1.08 2.4-2.4s-1.08-2.28-2.4-2.28zM86.46 55.38c-1.02 0-1.82.57-2.13 1.44H67.14v-.72c0-.4-.32-.72-.72-.72H63.3c-.4 0-.72.32-.72.72v3.12c0 .4.32.72.72.72h3.12c.4 0 .72-.32.72-.72v-.72h17.18c.31.91 1.11 1.56 2.14 1.56 1.32 0 2.4-1.08 2.4-2.4s-1.08-2.28-2.4-2.28z"/><path d="M106.98 62.82c-.89 0-1.59.47-1.88 1.2H88.73c-.31-.93-1.21-1.56-2.27-1.56-1.32 0-2.28.96-2.28 2.28 0 .33.06.64.17.92l-5.56 5.56h-11.7c-.35-.87-1.22-1.44-2.23-1.44-1.32 0-2.28.96-2.28 2.28s.96 2.4 2.28 2.4a2.4 2.4 0 0 0 2.24-1.56h12.04c.11 0 .22-.02.32-.06.1-.04.2-.1.27-.18l5.74-5.74c.29.14.62.23.98.23.98 0 1.82-.6 2.2-1.44h16.43c.29.78.99 1.32 1.89 1.32 1.2 0 2.16-.96 2.16-2.16s-.96-2.04-2.16-2.04zM108.06 40.86a2.4 2.4 0 0 0-2.24 1.56H86.81l-3.11-3.11v-6.85a.815.815 0 0 0-.24-.58l-7.2-7.2a.8.8 0 0 0-.57-.24H61.62l-5.37-5.37c.14-.3.22-.64.22-.99 0-1.32-1.08-2.28-2.4-2.28s-2.28.96-2.28 2.28.96 2.4 2.28 2.4c.35 0 .69-.08.99-.22l5.61 5.61a.8.8 0 0 0 .59.24h14.05l6.71 6.71v6.85c0 .11.02.22.06.32.04.1.1.19.17.26v.01l3.6 3.6s.02 0 .02.02c.07.07.15.13.25.16.1.04.21.06.32.06h19.36c.34.95 1.21 1.68 2.24 1.68 1.32 0 2.52-1.2 2.52-2.52s-1.2-2.4-2.52-2.4zM108.9 19.93c.95-.37 1.68-1.32 1.68-2.35 0-1.32-1.2-2.4-2.52-2.4a2.4 2.4 0 0 0-2.24 1.56h-2.98c-.38-.91-1.32-1.56-2.34-1.56s-1.9.65-2.24 1.56h-9.57c-.35-.87-1.22-1.44-2.23-1.44-1.32 0-2.28.96-2.28 2.28s.96 2.4 2.28 2.4a2.4 2.4 0 0 0 2.24-1.56h9.56c.34.95 1.21 1.68 2.24 1.68s1.98-.73 2.35-1.68h2.97c.24.67.76 1.23 1.41 1.5v13.74h-1.56v4.8h4.8v-4.8h-1.56V19.93zM105.66 7.86v1.68h-2.76V7.86h-4.8v1.68h-9.46c-.38-.8-1.21-1.32-2.18-1.32-1.02 0-1.82.57-2.13 1.44h-5.08l-1.41-1.41c.14-.3.22-.64.22-.99 0-1.32-1.08-2.28-2.4-2.28s-2.28.96-2.28 2.28.96 2.4 2.28 2.4c.35 0 .69-.08.99-.22l1.65 1.65a.8.8 0 0 0 .59.24h5.43c.31.91 1.11 1.56 2.14 1.56s1.97-.71 2.28-1.68h9.36v1.56h4.8v-1.56h2.76v1.56h4.8V7.85h-4.8zM11.22 111.66c0 2.52-2.16 4.68-4.68 4.68s-4.56-2.16-4.56-4.68 2.04-4.56 4.56-4.56 4.68 2.04 4.68 4.56zM11.22 7.26c0 2.52-2.16 4.68-4.68 4.68S1.98 9.78 1.98 7.26 4.02 2.7 6.54 2.7s4.68 2.04 4.68 4.56zM97.62 111.66c0 2.52-2.16 4.68-4.68 4.68s-4.56-2.16-4.56-4.68 2.04-4.56 4.56-4.56 4.68 2.04 4.68 4.56z"/><path d="M97.62 32.46c0 2.52-2.16 4.68-4.68 4.68s-4.56-2.16-4.56-4.68 2.04-4.56 4.56-4.56 4.68 2.04 4.68 4.56z"/><path d="M19.26 72.06c0 .6-.6 1.2-1.2 1.2s-1.08-.6-1.08-1.2.48-1.08 1.08-1.08 1.2.48 1.2 1.08zM19.26 100.86c0 .6-.6 1.2-1.2 1.2s-1.08-.6-1.08-1.2.48-1.08 1.08-1.08 1.2.48 1.2 1.08zM44.46 79.26c0 .6-.6 1.2-1.2 1.2s-1.08-.6-1.08-1.2.48-1.08 1.08-1.08 1.2.48 1.2 1.08zM44.46 100.86c0 .6-.6 1.2-1.2 1.2s-1.08-.6-1.08-1.2.48-1.08 1.08-1.08 1.2.48 1.2 1.08zM33.66 86.46c0 .6-.6 1.2-1.2 1.2s-1.08-.6-1.08-1.2.48-1.08 1.08-1.08 1.2.48 1.2 1.08zM44.46 57.66c0 .6-.6 1.2-1.2 1.2s-1.08-.6-1.08-1.2.48-1.08 1.08-1.08 1.2.48 1.2 1.08zM44.46 64.86c0 .6-.6 1.2-1.2 1.2s-1.08-.6-1.08-1.2.48-1.08 1.08-1.08 1.2.48 1.2 1.08zM44.46 72.06c0 .6-.6 1.2-1.2 1.2s-1.08-.6-1.08-1.2.48-1.08 1.08-1.08 1.2.48 1.2 1.08zM66.06 72.06c0 .6-.6 1.2-1.2 1.2s-1.08-.6-1.08-1.2.48-1.08 1.08-1.08 1.2.48 1.2 1.08zM33.66 57.66c0 .6-.6 1.2-1.2 1.2s-1.08-.6-1.08-1.2.48-1.08 1.08-1.08 1.2.48 1.2 1.08zM44.46 86.46c0 .6-.6 1.2-1.2 1.2s-1.08-.6-1.08-1.2.48-1.08 1.08-1.08 1.2.48 1.2 1.08zM44.46 93.66c0 .6-.6 1.2-1.2 1.2s-1.08-.6-1.08-1.2.48-1.08 1.08-1.08 1.2.48 1.2 1.08zM66.06 100.86c0 .6-.6 1.2-1.2 1.2s-1.08-.6-1.08-1.2.48-1.08 1.08-1.08 1.2.48 1.2 1.08zM66.06 93.66c0 .6-.6 1.2-1.2 1.2s-1.08-.6-1.08-1.2.48-1.08 1.08-1.08 1.2.48 1.2 1.08zM66.06 86.46c0 .6-.6 1.2-1.2 1.2s-1.08-.6-1.08-1.2.48-1.08 1.08-1.08 1.2.48 1.2 1.08zM66.06 79.26c0 .6-.6 1.2-1.2 1.2s-1.08-.6-1.08-1.2.48-1.08 1.08-1.08 1.2.48 1.2 1.08zM76.86 64.86c0 .6-.6 1.2-1.2 1.2s-1.08-.6-1.08-1.2.48-1.08 1.08-1.08 1.2.48 1.2 1.08zM66.06 64.86c0 .6-.6 1.2-1.2 1.2s-1.08-.6-1.08-1.2.48-1.08 1.08-1.08 1.2.48 1.2 1.08zM66.06 57.66c0 .6-.6 1.2-1.2 1.2s-1.08-.6-1.08-1.2.48-1.08 1.08-1.08 1.2.48 1.2 1.08zM87.66 57.66c0 .6-.6 1.2-1.2 1.2s-1.08-.6-1.08-1.2.48-1.08 1.08-1.08 1.2.48 1.2 1.08zM87.66 64.74c0 .6-.6 1.2-1.2 1.2s-1.08-.6-1.08-1.2.48-1.08 1.08-1.08 1.2.48 1.2 1.08zM109.62 86.46c0 .84-.72 1.56-1.56 1.56s-1.44-.72-1.44-1.56.6-1.44 1.44-1.44 1.56.6 1.56 1.44zM109.62 93.66c0 .84-.72 1.56-1.56 1.56s-1.44-.72-1.44-1.56.6-1.44 1.44-1.44 1.56.6 1.56 1.44zM109.62 100.86c0 .84-.72 1.56-1.56 1.56s-1.44-.72-1.44-1.56.6-1.44 1.44-1.44 1.56.6 1.56 1.44zM109.62 108.06c0 .84-.72 1.56-1.56 1.56s-1.44-.72-1.44-1.56.6-1.44 1.44-1.44 1.56.6 1.56 1.44zM108.18 72.06c0 .6-.6 1.2-1.2 1.2s-1.08-.6-1.08-1.2.48-1.08 1.08-1.08 1.2.48 1.2 1.08zM108.18 64.86c0 .6-.6 1.2-1.2 1.2s-1.08-.6-1.08-1.2.48-1.08 1.08-1.08 1.2.48 1.2 1.08zM108.18 57.66c0 .6-.6 1.2-1.2 1.2s-1.08-.6-1.08-1.2.48-1.08 1.08-1.08 1.2.48 1.2 1.08zM76.86 36.06c0 .6-.6 1.2-1.2 1.2s-1.08-.6-1.08-1.2.48-1.08 1.08-1.08 1.2.48 1.2 1.08zM76.86 7.26c0 .6-.6 1.2-1.2 1.2s-1.08-.6-1.08-1.2.48-1.08 1.08-1.08 1.2.48 1.2 1.08zM87.66 10.5c0 .6-.6 1.2-1.2 1.2s-1.08-.6-1.08-1.2.48-1.08 1.08-1.08 1.2.48 1.2 1.08zM87.66 17.58c0 .6-.6 1.2-1.2 1.2s-1.08-.6-1.08-1.2.48-1.08 1.08-1.08 1.2.48 1.2 1.08zM102.06 17.58c0 .84-.72 1.56-1.56 1.56s-1.44-.72-1.44-1.56.6-1.44 1.44-1.44 1.56.6 1.56 1.44zM102.06 10.38c0 .84-.72 1.56-1.56 1.56s-1.44-.72-1.44-1.56.6-1.44 1.44-1.44 1.56.6 1.56 1.44zM23.22 25.26c0 .84-.72 1.56-1.56 1.56s-1.44-.72-1.44-1.56.6-1.44 1.44-1.44 1.56.6 1.56 1.44zM23.22 46.86c0 .84-.72 1.56-1.56 1.56s-1.44-.72-1.44-1.56.6-1.44 1.44-1.44 1.56.6 1.56 1.44zM30.3 7.26c0 .72-.72 1.44-1.44 1.44s-1.32-.72-1.32-1.44.6-1.32 1.32-1.32 1.44.6 1.44 1.32zM23.1 7.26c0 .72-.72 1.44-1.44 1.44s-1.32-.72-1.32-1.44.6-1.32 1.32-1.32 1.44.6 1.44 1.32zM48.06 7.26c0 .6-.6 1.2-1.2 1.2s-1.08-.6-1.08-1.2.48-1.08 1.08-1.08 1.2.48 1.2 1.08zM48.06 39.66c0 .6-.6 1.2-1.2 1.2s-1.08-.6-1.08-1.2.48-1.08 1.08-1.08 1.2.48 1.2 1.08zM55.26 39.66c0 .6-.6 1.2-1.2 1.2s-1.08-.6-1.08-1.2.48-1.08 1.08-1.08 1.2.48 1.2 1.08zM62.46 39.66c0 .6-.6 1.2-1.2 1.2s-1.08-.6-1.08-1.2.48-1.08 1.08-1.08 1.2.48 1.2 1.08z" fill="#fff"/><path d="M61.26 15.78c-1.32 0-2.28.96-2.28 2.28s.96 2.4 2.28 2.4 2.4-1.08 2.4-2.4-1.08-2.28-2.4-2.28zm0 3.48c-.6 0-1.08-.6-1.08-1.2s.48-1.08 1.08-1.08 1.2.48 1.2 1.08-.6 1.2-1.2 1.2z"/><path d="M55.26 18.06c0 .6-.6 1.2-1.2 1.2s-1.08-.6-1.08-1.2.48-1.08 1.08-1.08 1.2.48 1.2 1.08zM48.06 18.06c0 .6-.6 1.2-1.2 1.2s-1.08-.6-1.08-1.2.48-1.08 1.08-1.08 1.2.48 1.2 1.08zM109.62 17.58c0 .84-.72 1.56-1.56 1.56s-1.44-.72-1.44-1.56.6-1.44 1.44-1.44 1.56.6 1.56 1.44zM109.62 10.38c0 .84-.72 1.56-1.56 1.56s-1.44-.72-1.44-1.56.6-1.44 1.44-1.44 1.56.6 1.56 1.44zM109.62 43.26c0 .84-.72 1.56-1.56 1.56s-1.44-.72-1.44-1.56.6-1.44 1.44-1.44 1.56.6 1.56 1.44zM109.62 36.06c0 .84-.72 1.56-1.56 1.56s-1.44-.72-1.44-1.56.6-1.44 1.44-1.44 1.56.6 1.56 1.44z" fill="#fff"/><path fill="none" stroke="#000" stroke-miterlimit="10" stroke-width=".12" d="M118.86 2.94v113.04l-2.76 2.88H2.94l-2.88-2.88V2.94L2.94.06H116.1l2.76 2.88z"/></svg>