<svg xmlns="http://www.w3.org/2000/svg" viewBox="0 0 118.8 118.8"><path d="M14.04 64.8c0 1.2-.96 2.16-2.16 2.16S9.84 66 9.84 64.8s.84-2.04 2.04-2.04 2.16.84 2.16 2.04zM30.6 111.6c0 2.52-2.16 4.68-4.68 4.68s-4.56-2.16-4.56-4.68 2.04-4.56 4.56-4.56 4.68 2.04 4.68 4.56zM13.32 86.4c0 1.32-1.2 2.52-2.52 2.52s-2.4-1.2-2.4-2.52S9.48 84 10.8 84s2.52 1.08 2.52 2.4zM13.32 93.6c0 1.32-1.2 2.52-2.52 2.52s-2.4-1.2-2.4-2.52 1.08-2.4 2.4-2.4 2.52 1.08 2.52 2.4zM13.32 100.8c0 1.32-1.2 2.52-2.52 2.52s-2.4-1.2-2.4-2.52 1.08-2.4 2.4-2.4 2.52 1.08 2.52 2.4zM8.4 105.6h4.8v4.8H8.4zM14.04 72c0 1.2-.96 2.16-2.16 2.16S9.84 73.2 9.84 72s.84-2.04 2.04-2.04 2.16.84 2.16 2.04zM14.04 57.6c0 1.2-.96 2.16-2.16 2.16s-2.04-.96-2.04-2.16.84-2.04 2.04-2.04 2.16.84 2.16 2.04zM56.4 72c0 1.32-1.08 2.4-2.4 2.4s-2.28-1.08-2.28-2.4.96-2.28 2.28-2.28 2.4.96 2.4 2.28zM56.4 64.8c0 1.32-1.08 2.4-2.4 2.4s-2.28-1.08-2.28-2.4.96-2.28 2.28-2.28 2.4.96 2.4 2.28zM52.44 56.04h3.12v3.12h-3.12z"/><path fill="none" stroke="#000" stroke-linecap="round" stroke-linejoin="round" stroke-width="1.44" d="M52.44 59.16h3.12M55.56 59.16v-3.12M55.56 56.04h-3.12M52.44 56.04v3.12"/><path d="M34.8 57.6c0 1.32-1.08 2.4-2.4 2.4s-2.28-1.08-2.28-2.4.96-2.28 2.28-2.28 2.4.96 2.4 2.28zM45.6 64.8c0 1.32-1.08 2.4-2.4 2.4s-2.28-1.08-2.28-2.4.96-2.28 2.28-2.28 2.4.96 2.4 2.28zM34.8 64.68c0 1.32-1.08 2.4-2.4 2.4s-2.28-1.08-2.28-2.4.96-2.28 2.28-2.28 2.4.96 2.4 2.28zM78 100.8c0 1.32-1.08 2.4-2.4 2.4s-2.28-1.08-2.28-2.4.96-2.28 2.28-2.28 2.4.96 2.4 2.28zM78 86.4c0 1.32-1.08 2.4-2.4 2.4s-2.28-1.08-2.28-2.4.96-2.28 2.28-2.28 2.4.96 2.4 2.28zM103.2 100.8c0 1.32-1.08 2.4-2.4 2.4s-2.28-1.08-2.28-2.4.96-2.28 2.28-2.28 2.4.96 2.4 2.28zM117 111.6c0 2.52-2.16 4.68-4.68 4.68s-4.56-2.16-4.56-4.68 2.04-4.56 4.56-4.56 4.68 2.04 4.68 4.56zM78 93.6c0 1.32-1.08 2.4-2.4 2.4s-2.28-1.08-2.28-2.4.96-2.28 2.28-2.28 2.4.96 2.4 2.28zM88.8 86.4c0 1.32-1.08 2.4-2.4 2.4s-2.28-1.08-2.28-2.4.96-2.28 2.28-2.28 2.4.96 2.4 2.28zM78 64.8c0 1.32-1.08 2.4-2.4 2.4s-2.28-1.08-2.28-2.4.96-2.28 2.28-2.28 2.4.96 2.4 2.28zM78 72c0 1.32-1.08 2.4-2.4 2.4s-2.28-1.08-2.28-2.4.96-2.28 2.28-2.28S78 70.68 78 72zM78 79.2c0 1.32-1.08 2.4-2.4 2.4s-2.28-1.08-2.28-2.4.96-2.28 2.28-2.28 2.4.96 2.4 2.28zM103.2 72c0 1.32-1.08 2.4-2.4 2.4s-2.28-1.08-2.28-2.4.96-2.28 2.28-2.28 2.4.96 2.4 2.28zM78 57.6c0 1.32-1.08 2.4-2.4 2.4s-2.28-1.08-2.28-2.4.96-2.28 2.28-2.28 2.4.96 2.4 2.28zM88.8 57.6c0 1.32-1.08 2.4-2.4 2.4s-2.28-1.08-2.28-2.4.96-2.28 2.28-2.28 2.4.96 2.4 2.28zM56.4 79.2c0 1.32-1.08 2.4-2.4 2.4s-2.28-1.08-2.28-2.4.96-2.28 2.28-2.28 2.4.96 2.4 2.28zM56.4 86.4c0 1.32-1.08 2.4-2.4 2.4s-2.28-1.08-2.28-2.4.96-2.28 2.28-2.28 2.4.96 2.4 2.28zM56.4 93.6c0 1.32-1.08 2.4-2.4 2.4s-2.28-1.08-2.28-2.4.96-2.28 2.28-2.28 2.4.96 2.4 2.28zM56.4 100.8c0 1.32-1.08 2.4-2.4 2.4s-2.28-1.08-2.28-2.4.96-2.28 2.28-2.28 2.4.96 2.4 2.28zM74.4 39.6c0 1.32-1.08 2.4-2.4 2.4s-2.28-1.08-2.28-2.4.96-2.28 2.28-2.28 2.4.96 2.4 2.28zM67.2 39.6c0 1.32-1.08 2.4-2.4 2.4s-2.28-1.08-2.28-2.4.96-2.28 2.28-2.28 2.4.96 2.4 2.28zM67.2 18c0 1.32-1.08 2.4-2.4 2.4s-2.28-1.08-2.28-2.4.96-2.28 2.28-2.28 2.4.96 2.4 2.28zM60 39.6c0 1.32-1.08 2.4-2.4 2.4s-2.28-1.08-2.28-2.4.96-2.28 2.28-2.28 2.4.96 2.4 2.28zM70.44 16.44h3.12v3.12h-3.12z"/><path fill="none" stroke="#000" stroke-linecap="round" stroke-linejoin="round" stroke-width="1.44" d="M70.44 16.44v3.12M70.44 19.56h3.12M73.56 19.56v-3.12M73.56 16.44h-3.12"/><path d="M13.32 17.52c0 1.32-1.2 2.52-2.52 2.52s-2.4-1.2-2.4-2.52 1.08-2.4 2.4-2.4 2.52 1.08 2.52 2.4zM30.6 32.4c0 2.52-2.16 4.68-4.68 4.68s-4.56-2.16-4.56-4.68 2.04-4.56 4.56-4.56 4.68 2.04 4.68 4.56zM13.32 43.2c0 1.32-1.2 2.52-2.52 2.52s-2.4-1.2-2.4-2.52 1.08-2.4 2.4-2.4 2.52 1.08 2.52 2.4zM8.4 33.6h4.8v4.8H8.4zM117 7.2c0 2.52-2.16 4.68-4.68 4.68s-4.56-2.16-4.56-4.68 2.04-4.56 4.56-4.56S117 4.68 117 7.2zM100.2 25.2c0 1.68-1.32 3-3 3s-2.88-1.32-2.88-3 1.2-2.88 2.88-2.88 3 1.2 3 2.88zM92.64 7.2c0 1.44-1.2 2.64-2.64 2.64s-2.52-1.2-2.52-2.64S88.56 4.68 90 4.68s2.64 1.08 2.64 2.52z"/><path d="M94.56 4.68h5.16v5.04h-5.16V4.68zm-.24 39.24h5.64v5.64h-5.64v-5.64z" fill-rule="evenodd"/><path d="M74.4 7.2c0 1.32-1.08 2.4-2.4 2.4s-2.28-1.08-2.28-2.4.96-2.28 2.28-2.28 2.4.96 2.4 2.28zM60 18c0 1.32-1.08 2.4-2.4 2.4s-2.28-1.08-2.28-2.4.96-2.28 2.28-2.28S60 16.68 60 18zM45.6 36c0 1.32-1.08 2.4-2.4 2.4s-2.28-1.08-2.28-2.4.96-2.28 2.28-2.28 2.4.96 2.4 2.28zM45.6 7.2c0 1.32-1.08 2.4-2.4 2.4s-2.28-1.08-2.28-2.4.96-2.28 2.28-2.28 2.4.96 2.4 2.28zM8.4 7.8h4.8v4.92H8.4zM20.88 17.52c0 1.32-1.2 2.52-2.52 2.52s-2.4-1.2-2.4-2.52 1.08-2.4 2.4-2.4 2.52 1.08 2.52 2.4zM34.8 17.52c0 1.32-1.08 2.4-2.4 2.4s-2.28-1.08-2.28-2.4.96-2.28 2.28-2.28 2.4.96 2.4 2.28zM34.8 10.44c0 1.32-1.08 2.4-2.4 2.4s-2.28-1.08-2.28-2.4.96-2.28 2.28-2.28 2.4.96 2.4 2.28zM15.96 7.8h4.8v4.92h-4.8zM117 111.6c0 2.52-2.16 4.68-4.68 4.68s-4.56-2.16-4.56-4.68 2.04-4.56 4.56-4.56 4.68 2.04 4.68 4.56zM30.6 111.6c0 2.52-2.16 4.68-4.68 4.68s-4.56-2.16-4.56-4.68 2.04-4.56 4.56-4.56 4.68 2.04 4.68 4.56zM30.6 32.4c0 2.52-2.16 4.68-4.68 4.68s-4.56-2.16-4.56-4.68 2.04-4.56 4.56-4.56 4.68 2.04 4.68 4.56zM117 7.2c0 2.52-2.16 4.68-4.68 4.68s-4.56-2.16-4.56-4.68 2.04-4.56 4.56-4.56S117 4.68 117 7.2z"/></svg>